<?xml version="1.0" encoding="UTF-8" standalone="no"?>
<svg width="320px" height="106px" viewBox="0 0 320 106" version="1.1" xmlns="http://www.w3.org/2000/svg" xmlns:xlink="http://www.w3.org/1999/xlink" xmlns:sketch="http://www.bohemiancoding.com/sketch/ns">
    <title>address</title>
    <description>Created with Sketch (http://www.bohemiancoding.com/sketch)</description>
    <defs></defs>
    <g id="Page-1" stroke="none" stroke-width="1" fill="none" fill-rule="evenodd" sketch:type="MSPage">
        <g id="address" sketch:type="MSArtboardGroup" stroke="#2A5276" fill="#2A5276">
            <path d="M35.4508197,46.4977376 L35.4508197,18.5803167 L28.4016393,18.5803167 L28.4016393,29.0022624 L17.0491803,29.0022624 L17.0491803,18.5803167 L10,18.5803167 L10,46.4977376 L17.0491803,46.4977376 L17.0491803,35.280543 L28.4016393,35.280543 L28.4016393,46.4977376 L35.4508197,46.4977376 Z" id="H" sketch:type="MSShapeGroup"></path>
            <path d="M58.2786885,46.4977376 L58.2786885,40.219457 L47.295082,40.219457 L47.295082,18.5803167 L40.2459016,18.5803167 L40.2459016,46.4977376 L58.2786885,46.4977376 Z" id="L" sketch:type="MSShapeGroup"></path>
            <path d="M72.6229508,10 L67.0491803,10 L61.8442623,16.0271493 L66.1065574,16.0271493 L72.6229508,10 Z M68.9344262,46.4977376 L68.9344262,18.5803167 L61.8852459,18.5803167 L61.8852459,46.4977376 L68.9344262,46.4977376 Z" id="Í" sketch:type="MSShapeGroup"></path>
            <path d="M86.3114754,46.4977376 C94.8770492,46.4977376 101.065574,41.1821267 101.065574,32.5180995 C101.065574,23.8540724 94.8770492,18.5803167 86.2704918,18.5803167 L74.795082,18.5803167 L74.795082,29.8812217 L71.7213115,29.8812217 L71.7213115,35.4061086 L74.795082,35.4061086 L74.795082,46.4977376 L86.3114754,46.4977376 Z M87.5819672,35.4061086 L87.5819672,29.8812217 L81.8442623,29.8812217 L81.8442623,24.8585973 L86.3114754,24.8585973 C91.3114754,24.8585973 93.852459,28.2070136 93.852459,32.5180995 C93.852459,36.6617647 91.0655738,40.219457 86.2704918,40.219457 L81.8442623,40.219457 L81.8442623,35.4061086 L87.5819672,35.4061086 Z" id="Ð" sketch:type="MSShapeGroup"></path>
            <path d="M129.836066,46.4977376 L119.54918,18.5803167 L110.655738,18.5803167 L100.368852,46.4977376 L108.360656,46.4977376 L109.713115,42.479638 L120.491803,42.479638 L121.844262,46.4977376 L129.836066,46.4977376 Z M118.565574,36.2013575 L111.639344,36.2013575 L115.122951,25.6957014 L118.565574,36.2013575 Z" id="A" sketch:type="MSShapeGroup"></path>
            <path d="M141.844262,47 C149.180328,47 153.237705,43.2748869 153.237705,37.6662896 C153.237705,27.2861991 137.786885,29.8812217 137.786885,26.449095 C137.786885,25.2352941 138.688525,24.5237557 140.737705,24.5237557 C143.442623,24.5237557 146.434426,25.4864253 148.729508,27.4536199 L152.581967,22.0542986 C149.672131,19.5011312 145.860656,18.1617647 141.47541,18.1617647 C134.467213,18.1617647 130.614754,22.3472851 130.614754,27.0350679 C130.614754,37.7918552 146.065574,34.7364253 146.065574,38.4196833 C146.065574,39.800905 144.590164,40.638009 142.213115,40.638009 C138.442623,40.638009 135.409836,38.9638009 133.442623,36.9547511 L129.713115,42.5633484 C132.459016,45.2002262 136.311475,47 141.844262,47 L141.844262,47 Z" id="S" sketch:type="MSShapeGroup"></path>
            <path d="M187.540984,46.4977376 L187.540984,18.5803167 L177.745902,18.5803167 L172.04918,33.9830317 L166.311475,18.5803167 L156.516393,18.5803167 L156.516393,46.4977376 L163.565574,46.4977376 L163.565574,28.0395928 L170.491803,46.4977376 L173.606557,46.4977376 L180.491803,28.0395928 L180.491803,46.4977376 L187.540984,46.4977376 Z" id="M" sketch:type="MSShapeGroup"></path>
            <path d="M211.434426,10 L205.860656,10 L200.655738,16.0271493 L204.918033,16.0271493 L211.434426,10 Z M219.016393,46.4977376 L208.729508,18.5803167 L199.836066,18.5803167 L189.54918,46.4977376 L197.540984,46.4977376 L198.893443,42.479638 L209.672131,42.479638 L211.02459,46.4977376 L219.016393,46.4977376 Z M207.745902,36.2013575 L200.819672,36.2013575 L204.303279,25.6957014 L207.745902,36.2013575 Z" id="Á" sketch:type="MSShapeGroup"></path>
            <path d="M244.344262,46.4977376 L238.770492,36.2432127 C241.352459,35.3223982 244.221311,32.7273756 244.221311,27.8721719 C244.221311,22.6821267 240.778689,18.5803167 234.713115,18.5803167 L221.02459,18.5803167 L221.02459,46.4977376 L228.07377,46.4977376 L228.07377,37.1221719 L231.680328,37.1221719 L236.270492,46.4977376 L244.344262,46.4977376 Z M233.647541,30.8438914 L228.07377,30.8438914 L228.07377,24.8585973 L233.647541,24.8585973 C235.532787,24.8585973 237.04918,25.9049774 237.04918,27.8303167 C237.04918,29.7975113 235.532787,30.8438914 233.647541,30.8438914 Z" id="R" sketch:type="MSShapeGroup"></path>
            <path d="M274.672131,46.4977376 L264.385246,18.5803167 L255.491803,18.5803167 L245.204918,46.4977376 L253.196721,46.4977376 L254.54918,42.479638 L265.327869,42.479638 L266.680328,46.4977376 L274.672131,46.4977376 Z M263.401639,36.2013575 L256.47541,36.2013575 L259.959016,25.6957014 L263.401639,36.2013575 Z" id="A" sketch:type="MSShapeGroup"></path>
            <path d="M298.196721,47 C304.54918,47 309.098361,42.9400452 309.098361,37.2058824 C309.098361,31.2624434 304.54918,28.0395928 299.631148,28.0395928 C296.885246,28.0395928 294.262295,29.3789593 292.909836,31.2205882 L292.909836,30.8857466 C292.909836,26.9932127 295.983607,24.5237557 299.344262,24.5237557 C301.557377,24.5237557 303.07377,25.1097285 304.590164,26.3653846 L307.622951,20.8404977 C305.57377,19.2081448 302.540984,18.1617647 299.344262,18.1617647 C291.065574,18.1617647 285.778689,23.6866516 285.778689,32.60181 C285.778689,40.5961538 289.54918,47 298.196721,47 Z M297.745902,40.638009 C294.42623,40.638009 293.114754,38.2941176 292.909836,36.0339367 C294.098361,34.7364253 295.778689,34.1504525 297.5,34.1504525 C299.631148,34.1504525 301.967213,35.1131222 301.967213,37.4570136 C301.967213,39.0056561 300.368852,40.638009 297.745902,40.638009 Z" id="SIX" sketch:type="MSShapeGroup"></path>
            <path d="M33.4576758,95.4705882 L33.4576758,88.8529412 L22.9555237,88.8529412 C30.1004304,83.7352941 33.2424677,79.8970588 33.2424677,75.3529412 C33.2424677,69.4852941 28.3787661,65.6029412 21.6212339,65.6029412 C17.6183644,65.6029412 13.0559541,67.0588235 10,70.5 L14.0889527,75.5294118 C16.1549498,73.5441176 18.5652798,72.3088235 21.7503587,72.3088235 C23.8593974,72.3088235 25.7101865,73.3676471 25.7101865,75.3529412 C25.7101865,78.3088235 23.3859397,80.3382353 10.9469154,89.5588235 L10.9469154,95.4705882 L33.4576758,95.4705882 Z" id="TWO" sketch:type="MSShapeGroup"></path>
            <path d="M48.6083214,96 C57.0014347,96 60.9182209,88.5441176 60.9182209,80.7794118 C60.9182209,73.0147059 57.0014347,65.6029412 48.6083214,65.6029412 C40.215208,65.6029412 36.2984218,73.0147059 36.2984218,80.7794118 C36.2984218,88.5441176 40.215208,96 48.6083214,96 Z M48.6083214,89.2941176 C45.1649928,89.2941176 43.7876614,85.9852941 43.7876614,80.7794118 C43.7876614,75.5735294 45.1649928,72.3088235 48.6083214,72.3088235 C52.0516499,72.3088235 53.4289813,75.5735294 53.4289813,80.7794118 C53.4289813,85.9852941 52.0516499,89.2941176 48.6083214,89.2941176 Z" id="ZERO" sketch:type="MSShapeGroup"></path>
            <path d="M78.6944046,95.4705882 L78.6944046,66.0441176 L72.2812052,66.0441176 L62.2525108,76.1911765 L66.4705882,80.7352941 L71.2912482,75.75 L71.2912482,95.4705882 L78.6944046,95.4705882 Z" id="ONE" sketch:type="MSShapeGroup"></path>
            <path d="M120.832138,95.4705882 L109.081779,79.8088235 L120.229555,66.0441176 L111.104735,66.0441176 L102.281205,78.1323529 L102.281205,66.0441176 L94.8780488,66.0441176 L94.8780488,95.4705882 L102.281205,95.4705882 L102.281205,86.8676471 L104.218077,84.3970588 L111.750359,95.4705882 L120.832138,95.4705882 Z" id="K" sketch:type="MSShapeGroup"></path>
            <path d="M142.568149,57 L136.714491,57 L131.248207,63.3529412 L135.724534,63.3529412 L142.568149,57 Z M135.035868,96 C143.816356,96 150.35868,89.7352941 150.35868,80.7794118 C150.35868,71.8235294 143.816356,65.5588235 135.035868,65.5588235 C126.25538,65.5588235 119.670014,71.8235294 119.670014,80.7794118 C119.670014,89.7352941 126.25538,96 135.035868,96 Z M135.035868,89.2941176 C130.301291,89.2941176 127.202296,85.5441176 127.202296,80.7794118 C127.202296,75.9705882 130.301291,72.2647059 135.035868,72.2647059 C139.770445,72.2647059 142.826399,75.9705882 142.826399,80.7794118 C142.826399,85.5441176 139.770445,89.2941176 135.035868,89.2941176 Z" id="Ó" sketch:type="MSShapeGroup"></path>
            <path d="M161.506456,95.4705882 L161.506456,85.5882353 L168.479197,85.5882353 C174.935438,85.5882353 178.464849,81.1323529 178.464849,75.8382353 C178.464849,70.5 174.935438,66.0441176 168.479197,66.0441176 L154.1033,66.0441176 L154.1033,95.4705882 L161.506456,95.4705882 Z M167.360115,78.9705882 L161.506456,78.9705882 L161.506456,72.6617647 L167.360115,72.6617647 C169.340029,72.6617647 170.932568,73.8088235 170.932568,75.8382353 C170.932568,77.8235294 169.340029,78.9705882 167.360115,78.9705882 Z" id="P" sketch:type="MSShapeGroup"></path>
            <path d="M206.571019,95.4705882 L195.767575,66.0441176 L186.427547,66.0441176 L175.624103,95.4705882 L184.017217,95.4705882 L185.43759,91.2352941 L196.757532,91.2352941 L198.177905,95.4705882 L206.571019,95.4705882 Z M194.734577,84.6176471 L187.460545,84.6176471 L191.119082,73.5441176 L194.734577,84.6176471 Z" id="A" sketch:type="MSShapeGroup"></path>
            <path d="M223.873745,95.4705882 L234.677188,66.0441176 L226.284075,66.0441176 L219.225251,87.2647059 L212.123386,66.0441176 L203.730273,66.0441176 L214.533716,95.4705882 L223.873745,95.4705882 Z" id="V" sketch:type="MSShapeGroup"></path>
            <path d="M249.827834,96 C258.608321,96 265.150646,89.7352941 265.150646,80.7794118 C265.150646,71.8235294 258.608321,65.5588235 249.827834,65.5588235 C241.047346,65.5588235 234.46198,71.8235294 234.46198,80.7794118 C234.46198,89.7352941 241.047346,96 249.827834,96 Z M249.827834,89.2941176 C245.093257,89.2941176 241.994261,85.5441176 241.994261,80.7794118 C241.994261,75.9705882 245.093257,72.2647059 249.827834,72.2647059 C254.56241,72.2647059 257.618364,75.9705882 257.618364,80.7794118 C257.618364,85.5441176 254.56241,89.2941176 249.827834,89.2941176 Z" id="O" sketch:type="MSShapeGroup"></path>
            <path d="M282.969871,96 C288.393113,96 292.611191,93.75 295.667145,90.2647059 L295.667145,78.5735294 L281.807747,78.5735294 L281.807747,85.2352941 L288.263989,85.2352941 L288.263989,87.5294118 C287.23099,88.4117647 285.07891,89.2941176 282.969871,89.2941176 C278.278336,89.2941176 274.964132,85.5882353 274.964132,80.7794118 C274.964132,75.9264706 278.278336,72.2647059 282.969871,72.2647059 C285.767575,72.2647059 287.962697,74.0735294 289.038737,76.0147059 L295.236729,72.7058824 C293.256815,69.0441176 289.38307,65.5588235 282.969871,65.5588235 C274.404591,65.5588235 267.431851,71.4264706 267.431851,80.7794118 C267.431851,90.1323529 274.404591,96 282.969871,96 L282.969871,96 Z" id="G" sketch:type="MSShapeGroup"></path>
            <path d="M307.417504,95.4705882 L307.417504,66.0441176 L300.014347,66.0441176 L300.014347,95.4705882 L307.417504,95.4705882 Z" id="I" sketch:type="MSShapeGroup"></path>
        </g>
    </g>
</svg>