<?xml version="1.0" encoding="UTF-8" standalone="no"?>
<svg width="320px" height="54px" viewBox="0 0 320 54" version="1.1" xmlns="http://www.w3.org/2000/svg" xmlns:xlink="http://www.w3.org/1999/xlink" xmlns:sketch="http://www.bohemiancoding.com/sketch/ns">
    <title>email</title>
    <description>Created with Sketch (http://www.bohemiancoding.com/sketch)</description>
    <defs></defs>
    <g id="Page-1" stroke="none" stroke-width="1" fill="none" fill-rule="evenodd" sketch:type="MSPage">
        <g id="email" sketch:type="MSArtboardGroup" stroke="#2A5276" fill="#2A5276">
            <path d="M30.9312446,40.9210867 L30.9312446,25.7904269 C30.9312446,21.8758085 28.7554395,19.148771 23.9686684,19.148771 C20.4438642,19.148771 17.9634465,20.7761966 16.7014795,22.2716688 L16.7014795,11.5834411 L10,11.5834411 L10,40.9210867 L16.7014795,40.9210867 L16.7014795,27.1979301 C17.4847694,26.2302717 18.7902524,25.1306598 20.7484769,25.1306598 C22.8807659,25.1306598 24.229765,25.9663648 24.229765,28.5614489 L24.229765,40.9210867 L30.9312446,40.9210867 Z M45.8572672,41.4489004 C53.0809399,41.4489004 57.3455178,36.2587322 57.3455178,30.2768435 C57.3455178,24.2949547 53.0809399,19.148771 45.8572672,19.148771 C38.7206266,19.148771 34.4560487,24.2949547 34.4560487,30.2768435 C34.4560487,36.2587322 38.7206266,41.4489004 45.8572672,41.4489004 Z M45.8572672,35.4670116 C42.9852045,35.4670116 41.3315927,33.1358344 41.3315927,30.2768435 C41.3315927,27.461837 42.9852045,25.1306598 45.8572672,25.1306598 C48.8163621,25.1306598 50.4699739,27.461837 50.4699739,30.2768435 C50.4699739,33.1358344 48.8163621,35.4670116 45.8572672,35.4670116 Z M67.5718016,40.9210867 L67.5718016,11.5834411 L60.870322,11.5834411 L60.870322,40.9210867 L67.5718016,40.9210867 Z M79.1470844,40.9210867 L79.1470844,11.5834411 L72.4456049,11.5834411 L72.4456049,40.9210867 L79.1470844,40.9210867 Z" id="holl" sketch:type="MSShapeGroup"></path>
            <path d="M96.9016536,44 C100.121845,44 103.255004,42.9883571 105.953003,41.228978 L104.952132,39.8214748 C102.602263,41.316947 99.9912968,42.1966365 97.1192341,42.1966365 C90.0696258,42.1966365 84.9347258,36.9624838 84.9347258,30.0569211 C84.9347258,21.8758085 92.0278503,14.7063389 100.208877,14.7063389 C107.519582,14.7063389 112.088773,19.23674 112.088773,26.0543338 C112.088773,30.5847348 110,32.6959897 108.302872,32.6959897 C107.476066,32.6959897 106.910357,32.1681759 106.910357,30.8486417 C106.910357,30.6287193 106.953873,29.9689521 106.997389,29.7490298 L109.129678,19.6326003 L103.211488,19.6326003 L102.819843,21.7438551 C101.818973,20.160414 99.9477807,19.0168176 97.4238468,19.0168176 C92.4194952,19.0168176 87.7632724,23.9430789 87.7632724,29.6610608 C87.7632724,33.927555 90.2872063,37.1824062 94.5953003,37.1824062 C96.6840731,37.1824062 98.9904265,35.9948254 100.51349,33.7956016 L100.600522,34.1034929 C100.948651,35.686934 102.254134,37.1824062 104.952132,37.1824062 C108.781549,37.1824062 114.090513,33.7076326 114.090513,26.0983182 C114.090513,18.9288486 108.781549,12.8589909 100.382942,12.8589909 C91.3315927,12.8589909 83.1070496,20.8641656 83.1070496,30.1888745 C83.1070496,37.9741268 88.9817232,44 96.9016536,44 Z M97.0322019,32.4760673 C95.0739774,32.4760673 93.8555265,31.156533 93.8555265,29.1332471 C93.8555265,26.4062096 95.9007833,23.7231565 98.9469104,23.7231565 C100.600522,23.7231565 101.557876,24.690815 101.993037,25.4825356 L101.035683,30.14489 C100.252393,31.2005175 98.9904265,32.4760673 97.0322019,32.4760673 Z" id="at" sketch:type="MSShapeGroup"></path>
            <path d="M139.068755,40.9210867 L139.068755,25.7904269 C139.068755,21.8758085 136.89295,19.148771 132.106179,19.148771 C128.581375,19.148771 126.100957,20.7761966 124.83899,22.2716688 L124.83899,11.5834411 L118.137511,11.5834411 L118.137511,40.9210867 L124.83899,40.9210867 L124.83899,27.1979301 C125.62228,26.2302717 126.927763,25.1306598 128.885988,25.1306598 C131.018277,25.1306598 132.367276,25.9663648 132.367276,28.5614489 L132.367276,40.9210867 L139.068755,40.9210867 Z M153.994778,41.4489004 C161.218451,41.4489004 165.483029,36.2587322 165.483029,30.2768435 C165.483029,24.2949547 161.218451,19.148771 153.994778,19.148771 C146.858138,19.148771 142.59356,24.2949547 142.59356,30.2768435 C142.59356,36.2587322 146.858138,41.4489004 153.994778,41.4489004 Z M153.994778,35.4670116 C151.122715,35.4670116 149.469104,33.1358344 149.469104,30.2768435 C149.469104,27.461837 151.122715,25.1306598 153.994778,25.1306598 C156.953873,25.1306598 158.607485,27.461837 158.607485,30.2768435 C158.607485,33.1358344 156.953873,35.4670116 153.994778,35.4670116 Z M175.709312,40.9210867 L175.709312,11.5834411 L169.007833,11.5834411 L169.007833,40.9210867 L175.709312,40.9210867 Z M187.284595,40.9210867 L187.284595,11.5834411 L180.583116,11.5834411 L180.583116,40.9210867 L187.284595,40.9210867 Z M200.295909,40.9210867 L200.295909,25.5265201 L204.560487,25.5265201 L204.560487,19.6765847 L200.295909,19.6765847 L200.295909,19.1927555 C200.295909,17.4333765 201.29678,16.5976714 202.515231,16.5976714 C203.472585,16.5976714 204.168842,16.8615783 204.691036,17.3454075 L207.127937,13.1228978 C205.735422,11.8033635 203.385553,11.1435964 201.122715,11.1435964 C196.727589,11.1435964 193.59443,14.1345408 193.59443,19.1927555 L193.59443,19.6765847 L190.113142,19.6765847 L190.113142,25.5265201 L193.59443,25.5265201 L193.59443,40.9210867 L200.295909,40.9210867 Z M226.449086,40.9210867 L226.449086,27.6377749 C226.449086,21.0401035 221.705831,19.148771 216.657963,19.148771 C213.437772,19.148771 209.825936,20.1164295 207.127937,22.4476067 L209.608355,27.1539457 C211.305483,25.702458 213.394256,24.8667529 215.483029,24.8667529 C218.181027,24.8667529 219.747607,26.1423027 219.747607,27.9896507 L219.747607,30.1009056 C218.48564,28.5174644 216.005222,27.5937904 213.220191,27.5937904 C210,27.5937904 205.996519,29.309185 205.996519,34.4553687 C205.996519,39.2056921 210,41.4489004 213.220191,41.4489004 C215.91819,41.4489004 218.442124,40.393273 219.747607,38.8098318 L219.747607,40.9210867 L226.449086,40.9210867 Z M216.005222,37.0064683 C214.264578,37.0064683 212.654482,36.2147477 212.654482,34.5433376 C212.654482,32.8719276 214.264578,32.080207 216.005222,32.080207 C217.484769,32.080207 219.051349,32.5640362 219.747607,33.5756792 L219.747607,35.4670116 C219.051349,36.4786546 217.484769,37.0064683 216.005222,37.0064683 Z M239.416884,41.4489004 C245.422106,41.4489004 248.94691,38.545925 248.94691,34.4993532 C248.94691,25.7904269 236.762402,28.2095731 236.762402,25.8783959 C236.762402,25.0426908 237.806789,24.4269082 239.373368,24.4269082 C241.897302,24.4269082 244.290688,25.5265201 245.552654,26.7580854 L248.120104,21.9637775 C245.857267,20.2923674 242.898172,19.148771 239.329852,19.148771 C233.542211,19.148771 230.322019,22.4036223 230.322019,26.1423027 C230.322019,34.76326 242.550044,32.0362225 242.550044,34.6752911 C242.550044,35.5989651 241.723238,36.1707633 239.721497,36.1707633 C237.241079,36.1707633 233.890339,34.7192755 232.32376,33.3117723 L229.538729,38.1500647 C231.75805,40.1733506 235.630983,41.4489004 239.416884,41.4489004 Z M260.348129,41.4489004 C262.828547,41.4489004 264.482158,40.8331177 265.308964,40.0413972 L264.003481,34.9391979 C263.785901,35.2031048 263.046127,35.4670116 262.306353,35.4670116 C261.174935,35.4670116 260.478677,34.5433376 260.478677,33.3117723 L260.478677,25.5265201 L264.743255,25.5265201 L264.743255,19.6765847 L260.478677,19.6765847 L260.478677,13.8706339 L253.777198,13.8706339 L253.777198,19.6765847 L250.295909,19.6765847 L250.295909,25.5265201 L253.777198,25.5265201 L253.777198,35.2031048 C253.777198,39.2936611 256.083551,41.4489004 260.348129,41.4489004 Z M271.488251,41.4049159 C273.707572,41.4049159 275.578764,39.5135834 275.578764,37.2703752 C275.578764,35.0711514 273.707572,33.1798189 271.488251,33.1798189 C269.26893,33.1798189 267.354221,35.0711514 267.354221,37.2703752 C267.354221,39.5135834 269.26893,41.4049159 271.488251,41.4049159 Z M283.150566,17.7852523 C285.282855,17.7852523 287.023499,16.0258732 287.023499,13.8706339 C287.023499,11.7153946 285.282855,10 283.150566,10 C281.018277,10 279.321149,11.7153946 279.321149,13.8706339 C279.321149,16.0258732 281.018277,17.7852523 283.150566,17.7852523 Z M286.501305,40.9210867 L286.501305,19.6765847 L279.799826,19.6765847 L279.799826,40.9210867 L286.501305,40.9210867 Z M299.469104,41.4489004 C305.474326,41.4489004 308.99913,38.545925 308.99913,34.4993532 C308.99913,25.7904269 296.814621,28.2095731 296.814621,25.8783959 C296.814621,25.0426908 297.859008,24.4269082 299.425587,24.4269082 C301.949521,24.4269082 304.342907,25.5265201 305.604874,26.7580854 L308.172324,21.9637775 C305.909487,20.2923674 302.950392,19.148771 299.382071,19.148771 C293.59443,19.148771 290.374238,22.4036223 290.374238,26.1423027 C290.374238,34.76326 302.602263,32.0362225 302.602263,34.6752911 C302.602263,35.5989651 301.775457,36.1707633 299.773716,36.1707633 C297.293299,36.1707633 293.942559,34.7192755 292.375979,33.3117723 L289.590949,38.1500647 C291.81027,40.1733506 295.683203,41.4489004 299.469104,41.4489004 Z" id="hollfast-is" sketch:type="MSShapeGroup"></path>
        </g>
    </g>
</svg>