<svg class="logo" width="320px" height="160px" viewBox="0 0 320 160" version="1.1" xmlns="http://www.w3.org/2000/svg" xmlns:xlink="http://www.w3.org/1999/xlink" xmlns:sketch="http://www.bohemiancoding.com/sketch/ns">
    <title>logo</title>
    <g stroke="none" stroke-width="1" fill="none" fill-rule="evenodd" sketch:type="MSPage">
        <g sketch:type="MSArtboardGroup" stroke="#FFFFFF" fill="#000000">
            <g class="holl" sketch:type="MSLayerGroup" transform="translate(10.000000, 10.000000)">
                <path class="p1 H" d="M76.0946746,105.566964 L76.0946746,25.9140625 L52.1893491,25.9140625 L52.1893491,54.0970982 L23.9053254,54.0970982 L23.9053254,25.9140625 L0,25.9140625 L0,105.566964 L23.9053254,105.566964 L23.9053254,75.1149554 L52.1893491,75.1149554 L52.1893491,105.566964 L76.0946746,105.566964 Z" sketch:type="MSShapeGroup"></path>
                <path class="p2 O" d="M127.810651,107 C152.189349,107 171.005917,90.28125 171.005917,65.8002232 C171.005917,41.3191964 152.189349,24.6004464 127.810651,24.6004464 C103.431953,24.6004464 84.6153846,41.3191964 84.6153846,65.8002232 C84.6153846,90.28125 103.431953,107 127.810651,107 Z M127.810651,85.7433036 C116.331361,85.7433036 108.87574,76.90625 108.87574,65.8002232 C108.87574,54.6941964 116.331361,45.8571429 127.810651,45.8571429 C139.289941,45.8571429 146.745562,54.6941964 146.745562,65.8002232 C146.745562,76.90625 139.289941,85.7433036 127.810651,85.7433036 Z" sketch:type="MSShapeGroup"></path>
                <path class="p21 O1" d="M125.91716,10.6283482 C125.91716,4.65736607 121.301775,0 115.384615,0 C109.467456,0 104.852071,4.65736607 104.852071,10.6283482 C104.852071,16.5993304 109.467456,21.2566964 115.384615,21.2566964 C121.301775,21.2566964 125.91716,16.5993304 125.91716,10.6283482 L125.91716,10.6283482 Z" sketch:type="MSShapeGroup"></path>
                <path class="p22 O2" d="M151.597633,10.6283482 C151.597633,4.65736607 146.863905,0 140.946746,0 C135.147929,0 130.414201,4.65736607 130.414201,10.6283482 C130.414201,16.5993304 135.147929,21.2566964 140.946746,21.2566964 C146.863905,21.2566964 151.597633,16.5993304 151.597633,10.6283482 L151.597633,10.6283482 Z" sketch:type="MSShapeGroup"></path>
                <path class="p3 L" d="M233.372781,105.566964 L233.372781,84.5491071 L203.431953,84.5491071 L203.431953,25.9140625 L179.526627,25.9140625 L179.526627,105.566964 L233.372781,105.566964 Z" sketch:type="MSShapeGroup"></path>
                <path class="p4 L" d="M296.804734,105.566964 L296.804734,84.5491071 L266.863905,84.5491071 L266.863905,25.9140625 L242.95858,25.9140625 L242.95858,105.566964 L296.804734,105.566964 Z" sketch:type="MSShapeGroup"></path>
            </g>
            <g class="fasteignasala" sketch:type="MSLayerGroup" transform="translate(10.000000, 124.000000)">
                <path class="p13 A" d="M300,25.5478261 L290.837989,0.414492754 L281.378026,0.414492754 L272.216015,25.5478261 L280.744879,25.5478261 L281.638734,22.6086957 L290.577281,22.6086957 L291.471136,25.5478261 L300,25.5478261 Z M288.566108,15.9768116 L283.649907,15.9768116 L286.108007,7.87536232 L288.566108,15.9768116 Z" sketch:type="MSShapeGroup"></path>
                <path class="p12 L" d="M271.880819,25.5478261 L271.880819,18.915942 L262.458101,18.915942 L262.458101,0.414492754 L254.934823,0.414492754 L254.934823,25.5478261 L271.880819,25.5478261 Z" sketch:type="MSShapeGroup"></path>
                <path class="p11 A" d="M253.594041,25.5478261 L244.43203,0.414492754 L234.972067,0.414492754 L225.810056,25.5478261 L234.33892,25.5478261 L235.232775,22.6086957 L244.171322,22.6086957 L245.065177,25.5478261 L253.594041,25.5478261 Z M242.160149,15.9768116 L237.243948,15.9768116 L239.702048,7.87536232 L242.160149,15.9768116 Z" sketch:type="MSShapeGroup"></path>
                <path class="p10 S" d="M215.679702,26 C222.346369,26 226.405959,22.7971014 226.405959,17.257971 C226.405959,7.91304348 212.588454,9.94782609 212.588454,7.57391304 C212.588454,6.93333333 212.998138,6.44347826 214.487896,6.44347826 C216.834264,6.44347826 219.627561,7.27246377 221.787709,8.93043478 L225.810056,3.54202899 C222.979516,1.2057971 219.329609,0.0376811594 215.270019,0.0376811594 C208.454376,0.0376811594 204.953445,4.10724638 204.953445,8.36521739 C204.953445,18.2753623 218.808194,15.826087 218.808194,18.2376812 C218.808194,19.2173913 217.467412,19.5942029 216.052142,19.5942029 C212.700186,19.5942029 209.90689,18.1623188 208.044693,16.3536232 L204.134078,22.0057971 C206.778399,24.4173913 210.391061,26 215.679702,26 L215.679702,26 Z" sketch:type="MSShapeGroup"></path>
                <path class="p9 A" d="M204.692737,25.5478261 L195.530726,0.414492754 L186.070764,0.414492754 L176.908752,25.5478261 L185.437616,25.5478261 L186.331471,22.6086957 L195.270019,22.6086957 L196.163873,25.5478261 L204.692737,25.5478261 Z M193.258845,15.9768116 L188.342644,15.9768116 L190.800745,7.87536232 L193.258845,15.9768116 Z" sketch:type="MSShapeGroup"></path>
                <path class="p8 N" d="M175.56797,25.5478261 L175.56797,0.414492754 L168.044693,0.414492754 L168.044693,12.3217391 L159.404097,0.414492754 L151.657356,0.414492754 L151.657356,25.5478261 L159.180633,25.5478261 L159.180633,12.8115942 L168.342644,25.5478261 L175.56797,25.5478261 Z" sketch:type="MSShapeGroup"></path>
                <path class="p7 G" d="M136.945996,26 C141.824953,26 145.549348,24.0028986 148.3054,20.9130435 L148.3054,10.626087 L136.201117,10.626087 L136.201117,17.257971 L140.819367,17.257971 L140.819367,18.1623188 C140.037244,18.7652174 138.361266,19.2927536 136.945996,19.2927536 C133.333333,19.2927536 130.912477,16.5043478 130.912477,13 C130.912477,9.49565217 133.333333,6.70724638 136.945996,6.70724638 C139.180633,6.70724638 140.819367,8.28985507 141.527002,9.83478261 L147.858473,6.55652174 C146.294227,3.31594203 142.867784,0 136.945996,0 C129.422719,0 123.277467,4.93623188 123.277467,13 C123.277467,21.026087 129.422719,26 136.945996,26 L136.945996,26 Z" sketch:type="MSShapeGroup"></path>
                <path class="p6 I" d="M120.595903,25.5478261 L120.595903,0.414492754 L113.072626,0.414492754 L113.072626,25.5478261 L120.595903,25.5478261 Z" sketch:type="MSShapeGroup"></path>
                <path class="p5 E" d="M109.72067,25.5478261 L109.72067,18.915942 L98.3985102,18.915942 L98.3985102,16.1652174 L109.459963,16.1652174 L109.459963,9.53333333 L98.3985102,9.53333333 L98.3985102,7.04637681 L109.72067,7.04637681 L109.72067,0.414492754 L90.8752328,0.414492754 L90.8752328,25.5478261 L109.72067,25.5478261 Z" sketch:type="MSShapeGroup"></path>
                <path class="p4 T" d="M81.5642458,25.5478261 L81.5642458,7.04637681 L88.1936685,7.04637681 L88.1936685,0.414492754 L67.3743017,0.414492754 L67.3743017,7.04637681 L74.0409683,7.04637681 L74.0409683,25.5478261 L81.5642458,25.5478261 Z" sketch:type="MSShapeGroup"></path>
                <path class="p3 S" d="M56.2756052,26 C62.9422719,26 67.0018622,22.7971014 67.0018622,17.257971 C67.0018622,7.91304348 53.1843575,9.94782609 53.1843575,7.57391304 C53.1843575,6.93333333 53.594041,6.44347826 55.0837989,6.44347826 C57.4301676,6.44347826 60.2234637,7.27246377 62.3836127,8.93043478 L66.405959,3.54202899 C63.575419,1.2057971 59.9255121,0.0376811594 55.8659218,0.0376811594 C49.0502793,0.0376811594 45.5493482,4.10724638 45.5493482,8.36521739 C45.5493482,18.2753623 59.4040968,15.826087 59.4040968,18.2376812 C59.4040968,19.2173913 58.0633147,19.5942029 56.6480447,19.5942029 C53.2960894,19.5942029 50.5027933,18.1623188 48.6405959,16.3536232 L44.7299814,22.0057971 C47.3743017,24.4173913 50.9869646,26 56.2756052,26 L56.2756052,26 Z" sketch:type="MSShapeGroup"></path>
                <path class="p2 A" d="M45.2886406,25.5478261 L36.1266294,0.414492754 L26.6666667,0.414492754 L17.5046555,25.5478261 L26.0335196,25.5478261 L26.9273743,22.6086957 L35.8659218,22.6086957 L36.7597765,25.5478261 L45.2886406,25.5478261 Z M33.8547486,15.9768116 L28.9385475,15.9768116 L31.396648,7.87536232 L33.8547486,15.9768116 Z" sketch:type="MSShapeGroup"></path>
                <path class="p1 F" d="M7.52327747,25.5478261 L7.52327747,16.1652174 L18.58473,16.1652174 L18.58473,9.53333333 L7.52327747,9.53333333 L7.52327747,7.04637681 L18.8454376,7.04637681 L18.8454376,0.414492754 L0,0.414492754 L0,25.5478261 L7.52327747,25.5478261 Z" sketch:type="MSShapeGroup"></path>
            </g>
        </g>
    </g>
</svg>