<svg class="phone" width="320px" height="73px" viewBox="0 0 320 73" version="1.1" xmlns="http://www.w3.org/2000/svg" xmlns:xlink="http://www.w3.org/1999/xlink" xmlns:sketch="http://www.bohemiancoding.com/sketch/ns">
    <title>phone</title>
    <g stroke="none" stroke-width="1" fill="none" fill-rule="evenodd" sketch:type="MSPage">
        <g sketch:type="MSArtboardGroup" stroke="#2A5276" fill="#2A5276">
            <path class="p1 ph5" d="M31.4505382,63 C45.8277806,63 54.2849821,55.6923077 54.2849821,44.3846154 C54.2849821,34.1538462 46.5197335,27.6153846 37.7549974,27.6153846 C33.4495131,27.6153846 29.528447,29.1538462 27.0681702,31.5384615 L27.0681702,24.3076923 L50.7483342,24.3076923 L50.7483342,10.7692308 L11.537673,10.7692308 L11.537673,41.9230769 L22.2245003,44.3846154 C24.8385443,41.9230769 27.8370067,40.8461538 31.7580728,40.8461538 C36.524859,40.8461538 38.5238339,42.7692308 38.5238339,45.0769231 C38.5238339,47.2307692 36.4479754,49.3076923 31.2967709,49.3076923 C26.8375192,49.3076923 21.840082,47.7692308 18.3034341,44.8461538 L10,55.7692308 C14.9974372,60.3076923 22.3013839,63 31.4505382,63 L31.4505382,63 Z" sketch:type="MSShapeGroup"></path>
            <path class="p2 ph6" d="M81.501794,63 C93.6494106,63 102.798565,55.6923077 102.798565,44.5384615 C102.798565,33.6153846 93.8800615,27.5384615 84.6540236,27.5384615 C79.964121,27.5384615 75.351102,29.3846154 72.7370579,32.7692308 L72.7370579,32.6153846 C72.7370579,26.3846154 78.8877499,23.6923077 83.9620707,23.6923077 C87.7293696,23.6923077 90.4971809,24.3846154 93.4187596,26.4615385 L99.9538698,14.4615385 C95.8790364,11.6923077 89.8052281,10 83.9620707,10 C68.0471553,10 57.0527934,19.3846154 57.0527934,36.5384615 C57.0527934,51.5384615 64.6642747,63 81.501794,63 Z M80.5023065,49.3076923 C75.1204511,49.3076923 72.9677089,46.2307692 72.6601743,42.7692308 C74.7360328,41.1538462 77.2731932,40.6923077 79.8872373,40.6923077 C82.9625833,40.6923077 87.0374167,41.8461538 87.0374167,45.1538462 C87.0374167,47.3076923 84.4233726,49.3076923 80.5023065,49.3076923 Z" sketch:type="MSShapeGroup"></path>
            <path class="p3 ph1" d="M136.704254,62.0769231 L136.704254,10.7692308 L123.326499,10.7692308 L103.721169,30 L112.485905,39.1538462 L121.173757,30.5384615 L121.173757,62.0769231 L136.704254,62.0769231 Z" sketch:type="MSShapeGroup"></path>
            <path class="p4 ph3" d="M163.921066,63 C177.221937,63 186.217324,56.7692308 186.217324,47.6153846 C186.217324,40.5384615 179.759098,36.2307692 174.069708,35.6153846 C180.604818,34.5384615 185.371604,29.6923077 185.371604,24.2307692 C185.371604,15.7692308 178.144541,10 163.99795,10 C154.003075,10 147.006663,13.4615385 142.470528,18.4615385 L149.774475,28.1538462 C153.311123,25.2307692 157.924141,23.6923077 162.306509,23.6923077 C166.765761,23.6923077 169.917991,24.6153846 169.917991,27 C169.917991,28.6153846 167.765249,29.5384615 162.844695,29.5384615 C160.999487,29.5384615 156.386468,29.5384615 155.386981,29.4615385 L155.386981,43.2307692 C156.155818,43.1538462 160.615069,43.0769231 162.844695,43.0769231 C169.68734,43.0769231 170.763711,44.0769231 170.763711,45.8461538 C170.763711,47.6923077 168.380318,49.3076923 163.305997,49.3076923 C159.384931,49.3076923 153.388006,47.8461538 149.390056,44.3846154 L141.778575,55 C146.084059,59.6153846 153.772424,63 163.921066,63 L163.921066,63 Z" sketch:type="MSShapeGroup"></path>
            <path class="p5 ph1" d="M221.276269,62.0769231 L221.276269,10.7692308 L207.898514,10.7692308 L188.293183,30 L197.057919,39.1538462 L205.745771,30.5384615 L205.745771,62.0769231 L221.276269,62.0769231 Z" sketch:type="MSShapeGroup"></path>
            <path class="p6 ph3" d="M248.49308,63 C261.793952,63 270.789339,56.7692308 270.789339,47.6153846 C270.789339,40.5384615 264.331112,36.2307692 258.641722,35.6153846 C265.176832,34.5384615 269.943619,29.6923077 269.943619,24.2307692 C269.943619,15.7692308 262.716556,10 248.569964,10 C238.57509,10 231.578678,13.4615385 227.042542,18.4615385 L234.346489,28.1538462 C237.883137,25.2307692 242.496156,23.6923077 246.878524,23.6923077 C251.337775,23.6923077 254.490005,24.6153846 254.490005,27 C254.490005,28.6153846 252.337263,29.5384615 247.416709,29.5384615 C245.571502,29.5384615 240.958483,29.5384615 239.958995,29.4615385 L239.958995,43.2307692 C240.727832,43.1538462 245.187084,43.0769231 247.416709,43.0769231 C254.259354,43.0769231 255.335725,44.0769231 255.335725,45.8461538 C255.335725,47.6923077 252.952332,49.3076923 247.878011,49.3076923 C243.956945,49.3076923 237.960021,47.8461538 233.962071,44.3846154 L226.350589,55 C230.656074,59.6153846 238.344439,63 248.49308,63 L248.49308,63 Z" sketch:type="MSShapeGroup"></path>
            <path class="p7 ph1" d="M305.848283,62.0769231 L305.848283,10.7692308 L292.470528,10.7692308 L272.865197,30 L281.629933,39.1538462 L290.317786,30.5384615 L290.317786,62.0769231 L305.848283,62.0769231 Z" sketch:type="MSShapeGroup"></path>
        </g>
    </g>
</svg>