<svg class="blueprint circle" class="" width="1000px" height="1000px" viewBox="0 0 1000 1000" version="1.1" xmlns="http://www.w3.org/2000/svg" xmlns:xlink="http://www.w3.org/1999/xlink" xmlns:sketch="http://www.bohemiancoding.com/sketch/ns">
    <title>circle</title>
    <g stroke="none" stroke-width="1" fill="none" fill-rule="evenodd" sketch:type="MSPage">
        <g class="circle" sketch:type="MSArtboardGroup" stroke="#FFFFFF">
            <path class="frame" d="M158.874,473.952 C156.527,474.054 156.131,475.126 155.389,475.745 C154.468,476.515 153.375,477.353 152.347,476.193 C151.27,474.98 152.354,473.839 153.246,473.268 C160.614,468.551 159.952,460.347 160.686,453.56 C163.472,427.823 168.93,402.665 176.415,378.014 C187.27,342.266 204.063,309.207 224.289,277.85 C235.132,261.04 246.523,244.643 259.811,229.65 C261.426,227.829 260.992,226.564 259.881,224.846 C254.011,215.767 251.2,205.852 251.973,194.998 C252.705,184.702 256.389,175.573 263.032,167.706 C265.053,165.313 267.306,164.264 270.114,167.28 C277.257,174.952 285.655,181.394 292.374,189.474 C294.949,192.571 296.384,192.539 299.498,189.756 C330.028,162.47 364.187,140.76 401.507,123.927 C422.66,114.387 444.556,107.034 466.903,100.944 C481.042,97.09 495.438,94.661 509.936,92.447 C525.034,90.141 540.127,87.871 555.353,87.348 C562.769,87.093 570.299,88.075 577.789,87.938 C611.916,87.311 645.313,92.606 678.145,101.247 C728.287,114.443 774.182,136.872 816.176,167.206 C840.432,184.728 861.995,205.24 882.026,227.453 C906.855,254.986 927.097,285.519 943.48,318.731 C954.791,341.662 963.442,365.613 970.229,390.151 C976.388,412.417 980.946,435.101 983.109,458.203 C984.756,475.802 985.525,493.426 984.985,511.073 C984.24,535.379 981.567,559.435 976.652,583.338 C967.847,626.163 952.475,666.392 931.022,704.357 C916.136,730.701 898.404,755.048 878.075,777.456 C852.863,805.248 824.411,829.24 792.616,849.191 C763.428,867.506 732.496,882.063 699.699,892.817 C682.408,898.486 664.874,903.114 647.065,906.437 C627.469,910.095 607.635,912.564 587.648,912.953 C566.498,913.365 545.302,913.524 524.299,910.742 C502.375,907.837 480.627,903.836 459.315,897.67 C422.801,887.107 388.195,872.273 355.775,852.374 C318.298,829.37 285.378,801.134 256.752,767.709 C234.398,741.608 216.128,712.92 200.315,682.549 C198.858,679.75 197.6,676.832 196.457,673.888 C195.132,670.476 193.208,669.946 189.866,671.423 C174.94,678.016 159.901,684.354 144.943,690.874 C124.342,699.853 103.762,708.88 83.21,717.969 C79.541,719.591 77.152,718.747 75.632,715.083 C68.683,698.329 61.828,681.542 56.681,664.117 C56.352,663.001 55.704,661.951 55.535,660.821 C54.755,655.605 51.35,656.137 47.735,657.182 C40.068,659.399 32.423,661.69 24.751,663.888 C23.001,664.389 21.191,664.746 19.384,664.977 C16.172,665.386 14.431,664.044 14.04,660.655 C11.867,641.821 17.77,626.17 34.623,617.084 C42.347,612.92 43.286,608.927 42.297,601.253 C39.727,581.308 39.597,560.907 34.974,541.405 C32.03,528.988 31.126,516.832 30.913,504.379 C30.77,496.045 31.032,495.915 39.191,495.915 C76.354,495.914 113.518,495.92 150.681,495.912 C157.787,495.911 158.426,495.45 158.822,488.463 C159.092,483.716 158.874,478.942 158.874,473.952 L158.874,473.952 Z M932.029,366.969 C932.799,371.35 933.293,375.801 934.383,380.101 C940.06,402.494 945.185,425.013 950.151,447.572 C951.526,453.82 950.877,454.841 944.679,455.984 C930.877,458.53 917.448,462.79 903.336,464.602 C904.206,466.365 905.551,465.982 906.555,465.885 C921.45,464.448 936.335,462.901 951.23,461.469 C953.835,461.218 953.857,459.606 953.99,457.642 C954.391,451.711 952.334,446.168 951.325,440.48 C948.195,422.82 944.245,405.312 939.477,388.034 C937.51,380.907 936.224,373.384 931.983,367.005 C931.29,360.95 928.234,355.678 926.334,350.024 C925.492,347.521 924.2,348.579 922.548,349.467 C911.696,355.298 900.762,360.976 889.855,366.706 C887.544,367.92 885.331,369.061 883.494,365.891 C878.084,356.55 873.81,346.62 868.529,337.196 C866.665,333.869 865.609,333.476 862.706,335.216 C854.566,340.096 846.377,344.894 838.179,349.676 C811.86,365.026 785.525,380.352 759.206,395.703 C757.921,396.453 756.496,397.219 756.529,399.018 C756.574,401.52 754.82,402.352 752.949,403.254 C743.791,407.667 734.385,411.492 724.938,415.229 C714.098,419.517 713.617,422.601 722.469,430.666 C722.592,430.778 722.731,430.873 722.856,430.983 C735.569,442.183 749.812,444.619 765.571,438.471 C771.167,436.288 772.804,436.91 774.327,442.436 C776.314,449.645 778.417,456.819 779.338,464.307 C781.006,477.875 781.141,477.858 794.582,476.983 C794.915,476.961 795.248,476.922 795.58,476.93 C798.994,477.016 799.718,475.64 798.964,472.259 C797.34,464.977 795.234,457.698 796.11,450.08 C796.565,446.124 797.537,442.365 802.007,441.161 C810.527,438.867 814.474,441.175 817.037,449.563 C817.932,452.493 818.029,455.458 817.962,458.464 C817.865,462.777 817.853,467.094 817.638,471.401 C817.531,473.556 818.199,474.545 820.449,474.324 C825.417,473.834 830.385,473.322 835.364,472.979 C838.975,472.73 839.647,471.398 838.698,467.798 C836.402,459.081 839.483,455.288 848.367,454.922 C849.861,454.861 851.36,454.726 852.838,454.5 C866.095,452.48 866.146,452.469 866.903,466.118 C867.026,468.35 867.549,469.811 869.977,469.519 C875.708,468.829 881.523,468.593 888.686,466.568 C884.489,465.733 884.044,463.417 883.512,461.158 C881.341,451.936 879.108,442.728 877.02,433.487 C874.975,424.434 872.339,415.531 872.881,405.999 C873.894,388.217 885.559,374.775 901.614,369.725 C908.887,367.438 916.464,366.131 923.877,364.275 C927.24,363.433 930.142,363.552 932.029,366.969 L932.029,366.969 Z M278.606,459.966 L278.606,459.986 C306.606,459.986 334.605,459.972 362.604,459.998 C368.813,460.003 369.95,461.104 369.955,467.276 C369.962,477.264 369.681,487.255 369.826,497.24 C369.914,503.261 369.356,504.188 363.127,504.199 C342.156,504.236 321.185,504.22 300.214,504.22 C264.548,504.219 228.883,504.2 193.217,504.225 C187.014,504.229 185.028,507.743 188.278,513.273 C189.276,514.972 189.653,516.111 188.414,517.684 C187.086,519.371 187.251,521.432 187.186,523.435 C187.003,529.141 188.251,534.698 188.851,540.323 C189.464,546.061 188.311,547.438 182.641,548.15 C179.834,548.502 177.018,548.817 174.196,549.013 C171.491,549.201 170.311,550.321 170.766,553.189 C171.6,558.441 172.077,563.752 172.984,568.99 C174.369,577.001 174.537,577.248 166.594,579.255 C149.027,583.693 137.783,600.284 138.086,617.477 C138.189,623.318 139.6,624.344 145.464,622.796 C155.414,620.168 165.331,617.379 175.366,615.121 C183.269,613.344 191.696,614.796 199.4,611.176 C201.635,610.125 203.243,611.77 204.148,614.256 C206.462,620.611 206.596,620.588 212.948,617.811 C228.04,611.215 243.102,604.55 258.213,597.998 C285.677,586.09 313.167,574.242 340.646,562.371 C349.812,558.411 358.917,554.302 368.17,550.556 C374.313,548.069 375.756,548.945 377.508,555.204 C379.887,563.701 382.943,571.958 386.078,580.197 C387.253,583.283 388.763,583.624 391.792,582.489 C399.411,579.633 406.959,577.866 415.526,579.597 C426.417,581.797 435.099,586.647 441.902,595.194 C445.765,600.047 445.686,601.056 440.335,604.435 C433.862,608.522 427.136,612.206 420.64,616.255 C410.64,622.488 410.634,622.603 418.567,631.307 C420.727,633.678 420.522,635.134 418.251,637.495 C409.367,646.731 400.825,656.295 392.049,665.638 C390.091,667.722 390.503,668.96 392.693,670.323 C396.96,672.978 401.351,675.259 406.361,676.219 C421.967,679.208 435.028,674.729 445.398,662.759 C447.688,660.115 449.496,659.643 451.869,662.302 C455.27,666.112 459.868,668.262 464.073,670.921 C487.177,685.534 512.302,694.788 539.272,699.179 C554.791,701.706 570.335,702.469 586.02,701.079 C591.981,700.55 593.002,701.986 594.09,707.977 C596.141,719.28 598.522,730.522 600.637,741.813 C601.199,744.811 602.19,745.632 605.315,744.479 C622.248,738.229 634.605,719.813 629.947,699.616 C628.944,695.267 629.891,693.028 634.244,691.875 C643.623,689.39 652.354,685.205 661.027,680.974 C685.287,669.139 706.212,652.975 723.979,632.614 C740.385,613.813 752.673,592.699 761.3,569.312 C763.019,564.651 761.705,562.972 757.56,561.267 C741.301,554.578 730.433,538.07 730.968,520.87 C731.213,513.003 732.664,511.679 740.324,513.321 C748.612,515.097 757.017,516.255 765.207,518.587 C771.109,520.267 772.224,518.94 773.122,512.905 C774.613,502.892 773.555,492.933 772.838,482.996 C771.973,471.029 769.871,459.229 766.395,447.69 C765.317,444.11 763.599,442.677 759.877,443.952 C753.237,446.226 746.593,445.753 739.871,444.025 C727.771,440.914 718.747,433.864 712.406,423.231 C710.237,419.593 711.017,417.373 715.211,415.606 C724.569,411.663 733.687,407.155 743.324,403.87 C745.801,403.026 747.634,401.544 746.01,398.661 C744.102,395.273 745.748,393.349 748.479,391.743 C750.342,390.648 752.258,389.641 754.122,388.547 C783.425,371.352 812.713,354.133 842.026,336.957 C860.565,326.094 879.138,315.288 897.702,304.469 C900.173,303.029 902.2,301.793 899.901,298.342 C893.344,288.5 886.861,278.618 879.71,269.184 C867.091,252.538 852.579,237.685 837.366,223.427 C814.807,202.286 790.387,183.599 763.854,167.796 C736.097,151.263 706.414,139.164 675.267,130.488 C644.324,121.869 612.84,117.39 580.771,117.023 C561.83,116.806 542.968,117.725 524.073,119.744 C494.406,122.913 465.743,129.759 437.958,140.338 C397.355,155.797 359.978,177.001 326.262,204.488 C323.461,206.771 320.893,207.134 317.532,206.144 C313.752,205.031 310.153,202.476 306.056,203.354 C303.114,203.984 301.325,202.908 299.455,201.046 C290.02,191.648 280.521,182.315 271.085,172.918 C267.638,169.484 265.711,169.391 263.173,173.377 C258.085,181.365 254.53,190.082 255.132,199.659 C255.876,211.481 260.281,221.947 269.126,230.24 C270.415,231.449 272.876,232.549 272.233,234.428 C270.36,239.905 273.195,244.553 274.396,249.418 C275.383,253.419 274.658,256.405 272.036,259.509 C267.632,264.721 263.644,270.282 259.374,275.61 C257.393,278.081 257.179,279.685 260.478,281.291 C265.996,283.979 271.26,287.184 276.724,289.991 C296.996,300.402 317.355,310.643 337.588,321.13 C361.669,333.612 385.646,346.296 409.686,358.858 C415.065,361.669 415.661,362.717 412.901,368.156 C405.077,383.571 397.063,398.89 389.131,414.25 C387.348,417.703 385.022,418.523 381.387,416.603 C361.826,406.27 342.214,396.029 322.571,385.852 C291.415,369.711 260.18,353.723 229.096,337.448 C225.279,335.449 223.72,335.983 222.057,339.76 C215.75,354.087 210.392,368.746 205.41,383.586 C197.706,406.534 192.895,430.053 189.82,454.013 C189.208,458.787 190.39,460.079 195.109,460.05 C222.941,459.879 250.774,459.966 278.606,459.966 L278.606,459.966 Z M691.458,673.416 C690.452,675.887 691.662,676.803 692.377,677.837 C696.829,684.27 701.333,690.667 705.786,697.099 C706.667,698.373 708.644,699.844 706.73,701.306 C705.012,702.618 703.752,700.852 702.781,699.448 C698.333,693.012 693.7,686.693 689.531,680.082 C687.658,677.112 686.292,676.744 683.376,678.703 C671.989,686.354 659.801,692.86 646.77,696.789 C637.379,699.621 633.891,703.846 633.706,713.739 C633.413,729.431 618.963,745.075 603.713,748.587 C600.56,749.312 598.75,748.595 597.818,745.189 C595.143,735.406 593.792,725.369 591.79,715.459 C591.133,712.202 590.35,709.737 586.155,710.222 C582.381,710.657 579.889,711.583 580.153,716.216 C580.568,723.521 580.564,730.852 580.784,738.167 C581.761,770.784 582.501,803.413 582.786,836.042 C582.912,850.513 583.492,864.95 583.945,879.401 C584.067,883.28 586.043,884.503 589.358,883.997 C596.965,882.834 604.741,883.751 612.246,882.465 C617.995,881.479 623.812,881.25 629.526,880.141 C632.931,879.48 634.033,877.913 632.668,874.545 C631.169,870.847 629.951,867.035 628.633,863.265 C627.539,860.138 628.642,858.166 631.758,857.086 C635.213,855.888 638.586,854.453 642.043,853.263 C644.936,852.267 645.399,850.334 644.5,847.75 C642.971,843.358 641.452,838.963 639.859,834.595 C632.904,815.529 625.878,796.489 618.981,777.402 C616.839,771.475 617.844,770.021 623.938,768.012 C631.671,765.461 639.354,762.75 647.012,759.978 C664.692,753.576 682.339,747.083 700.011,740.657 C704.022,739.198 706.658,740.245 707.966,744.672 C709.473,749.769 711.411,754.741 713.229,759.742 C720.048,778.504 726.947,797.237 733.676,816.03 C734.717,818.937 736.028,819.652 738.849,818.428 C742.041,817.043 745.382,816.006 748.643,814.776 C752.225,813.425 754.736,814.153 756.08,818.069 C757.537,822.315 759.417,826.418 760.807,830.683 C761.806,833.746 763.266,833.699 765.6,832.211 C771.216,828.631 776.857,825.086 782.57,821.664 C785.19,820.095 785.426,818.708 783.529,816.181 C779.032,810.193 774.787,804.008 770.628,797.777 C769.564,796.184 766.7,794.076 769.116,792.347 C771.069,790.949 772.283,794.036 773.346,795.539 C777.764,801.784 782.02,808.144 786.396,814.42 C787.088,815.413 787.747,817.362 789.327,816.31 C791.035,815.173 789.261,814.001 788.59,813.03 C784.615,807.28 780.465,801.647 776.641,795.8 C775.452,793.982 771.943,791.503 774.69,789.739 C777.153,788.157 778.314,792.236 779.681,794.09 C783.633,799.447 787.556,804.84 791.178,810.421 C793.136,813.438 794.705,813.511 797.474,811.401 C809.781,802.028 821.82,792.4 833.15,781.799 C854.13,762.167 872.961,740.779 889.338,717.174 C892.073,713.232 890.994,711.627 887.201,709.749 C877.818,705.104 868.561,700.197 859.31,695.29 C841.396,685.787 823.535,676.182 805.625,666.671 C783.728,655.044 761.773,643.525 739.935,631.789 C737.711,630.593 736.891,631.06 735.496,632.735 C724.695,645.695 712.813,657.576 699.302,667.717 C695.882,670.284 695.483,672.391 698.131,675.808 C702.51,681.459 706.494,687.417 710.62,693.263 C711.638,694.705 713.581,696.455 711.706,698.002 C709.437,699.874 708.807,697.022 707.758,695.755 C705.631,693.186 703.973,690.289 702.084,687.563 C698.835,682.873 696.023,677.784 691.458,673.416 L691.458,673.416 Z M318.939,788.701 C318.416,788.084 317.901,787.46 317.369,786.852 C306.087,773.936 294.868,760.965 283.474,748.148 C280.665,744.989 280.47,742.455 283.758,739.721 C285.293,738.445 286.697,737.011 288.208,735.703 C299.287,726.122 310.361,716.535 321.47,706.989 C333.592,696.571 345.787,686.237 357.872,675.776 C361.039,673.034 363.83,672.432 366.789,675.941 C374.942,685.608 382.881,695.462 391.636,704.61 C393.896,706.972 393.875,709.127 391.22,711.366 C387.409,714.58 383.856,718.1 380.078,721.355 C364.313,734.935 348.528,748.494 332.687,761.985 C330.163,764.135 330.243,765.824 332.454,768.164 C334.96,770.817 336.999,773.906 339.419,776.649 C341.874,779.431 341.386,781.478 338.593,783.722 C335.093,786.533 331.991,789.841 328.482,792.641 C325.886,794.711 326.043,796.133 328.586,798.016 C337.673,804.745 346.444,811.93 355.778,818.293 C380.504,835.151 406.916,848.846 434.949,859.4 C467.536,871.669 501.177,879.358 535.794,882.832 C544.618,883.718 545.916,882.593 544.727,874.221 C543.084,862.648 543.211,851.023 543.075,839.407 C542.871,821.94 542.786,804.469 542.929,787.003 C543.048,772.561 540.981,758.234 541.027,743.805 C541.059,733.64 540.945,723.474 540.984,713.309 C540.996,710.19 540.011,708.586 536.581,707.967 C505.544,702.362 476.707,691.277 451.01,672.714 C446.825,669.691 443.772,669.36 439.349,672.94 C425.318,684.298 402.479,682.671 389.205,671.964 C385.611,669.064 385.277,666.579 389.21,663.654 C391.044,662.29 392.379,660.261 393.964,658.555 C399.175,652.945 404.423,647.367 409.597,641.723 C410.951,640.246 412.43,638.554 410.662,636.474 C408.812,634.297 407.094,635.711 405.468,636.95 C402.686,639.072 399.901,641.192 397.152,643.355 C369.538,665.089 341.936,686.836 314.321,708.569 C301.887,718.355 289.481,728.177 276.957,737.848 C273.773,740.307 272.511,742.539 275.604,745.948 C278.959,749.646 282.003,753.626 285.375,757.307 C295.716,768.595 306.733,779.192 318.939,788.701 L318.939,788.701 Z M99.914,529.445 C84.429,529.445 68.943,529.371 53.46,529.517 C50.865,529.542 46.684,527.354 46.182,531.977 C45.833,535.189 43.185,537.185 43.497,540.798 C45.411,563.006 48.577,585.062 51.339,607.161 C52.001,612.459 51.044,614.43 45.775,615.752 C27.949,620.227 15.284,638.793 16.976,656.879 C17.287,660.203 18.654,661.35 21.831,660.548 C23.121,660.222 24.466,660.105 25.747,659.753 C36.315,656.853 46.883,653.955 57.43,650.982 C62.019,649.688 66.929,652.178 68.404,656.696 C70.264,662.391 72.201,668.06 73.98,673.779 C74.912,676.776 75.97,677.563 79.286,676.034 C92.877,669.765 106.655,663.898 120.378,657.915 C138.99,649.8 157.62,641.725 176.225,633.595 C177.488,633.042 179.273,633.035 179.394,630.946 C179.835,623.286 174.424,618.818 167.198,620.779 C158.708,623.083 150.186,625.267 141.664,627.449 C138.25,628.323 135.813,627.529 135.052,623.57 C131.719,606.24 141.629,586.305 157.358,578.864 C165.88,574.833 165.672,574.566 164.642,565.221 C163.422,554.152 158.539,543.755 158.949,532.422 C159.036,530.022 157.559,529.688 155.336,529.564 C136.866,528.532 118.386,529.385 99.914,529.445 L99.914,529.445 Z M925.913,514.315 C925.913,511.817 925.974,509.317 925.891,506.821 C925.837,505.195 925.397,503.739 923.213,504.283 C917.961,505.59 912.551,504.409 907.299,505.204 C883.65,508.78 859.712,509.521 836.012,512.742 C819.726,514.957 803.244,515.75 786.842,517.087 C784.119,517.31 781.894,517.76 781.474,521.001 C781.048,524.288 779.126,524.826 776.12,524.192 C764.254,521.689 752.344,519.398 740.469,516.941 C735.156,515.842 733.898,516.519 734.097,521.75 C734.632,535.784 743.488,552.902 759.356,558.065 C762.672,559.144 766.038,560.083 769.317,561.265 C771.256,561.964 773.259,563.104 772.056,565.652 C770.435,569.086 772.705,569.885 775.062,571.108 C792.188,579.996 809.316,588.882 826.347,597.952 C849.082,610.059 871.732,622.322 894.688,634.014 C898.216,635.811 899.464,634.805 900.553,631.764 C903.36,623.93 906.427,616.179 908.944,608.254 C915.091,588.898 919.763,569.222 922.471,549.032 C924.021,537.478 925.104,525.919 925.913,514.315 L925.913,514.315 Z M289.322,716.975 C294.205,713.17 298.322,709.811 302.603,706.676 C305.604,704.479 305.587,702.542 303.271,699.706 C295.903,690.68 288.768,681.464 281.531,672.331 C279.721,670.047 277.552,667.719 281.064,665.216 C284.441,662.81 286.131,665.498 287.928,667.76 C294.348,675.84 300.775,683.915 307.238,691.96 C312.827,698.916 312.85,698.896 319.762,693.159 C320.018,692.946 320.298,692.763 320.563,692.561 C322.497,691.087 322.392,690.24 320.354,688.486 C313.949,682.973 307.475,677.424 303.977,669.353 C301.952,664.679 302.789,660.933 307.123,657.446 C310.763,654.518 314.508,653.209 318.878,656.454 C323.117,659.603 326.378,663.303 328.539,668.197 C333.747,679.992 335.51,680.271 345.532,672.955 C349.413,670.122 349.772,668.314 346.381,664.579 C339.083,656.541 339.446,655.271 347.952,648.671 C348.738,648.061 349.437,647.338 350.172,646.663 C360.273,637.383 363.108,637.633 370.407,649.097 C372.065,651.701 373.017,651.209 374.933,649.675 C383.251,643.014 391.663,636.47 400.048,629.892 C401.224,628.969 402.715,628.187 402.516,626.417 C402.161,623.267 404.388,621.989 406.516,620.692 C415.6,615.154 424.673,609.596 433.837,604.191 C440.914,600.017 441.183,598.271 435.076,592.728 C434.093,591.836 433.009,591.045 431.916,590.287 C417.4,580.227 402.545,580.187 387.393,588.788 C385.98,589.591 384.511,591.359 382.918,590.462 C378.175,587.793 374.429,590.931 370.71,592.535 C322.418,613.371 274.22,634.427 225.953,655.322 C222.106,656.988 220.783,658.811 222.95,662.816 C227.934,672.033 232.458,681.501 237.553,690.653 C245.415,704.775 254.201,718.325 263.96,731.229 C265.622,733.426 267.414,734.241 269.846,732.338 C274.04,729.055 278.29,725.845 282.491,722.571 C284.632,720.902 284.552,719.606 281.714,719.017 C280.035,718.669 277.899,718.414 279.03,716.06 C279.909,714.232 280.197,712.777 279.349,710.931 C278.916,709.99 279.342,708.504 280.439,708.575 C283.37,708.765 286.294,709.572 289.118,710.173 C291.191,710.614 289.271,713.973 289.322,716.975 L289.322,716.975 Z M262.607,351.117 C263.06,350.952 263.514,350.786 263.967,350.62 C262.131,348.835 263.077,347.38 263.839,345.927 C266.698,340.477 269.534,335.014 272.465,329.603 C274.351,326.12 276.964,325.313 280.208,327.933 C281.778,329.201 283.549,330.057 285.343,330.961 C294.535,335.597 303.656,340.373 312.802,345.1 C314.786,346.126 316.046,347.27 314.631,349.797 C310.981,356.313 307.616,362.991 303.883,369.458 C302.697,371.512 303.07,372.209 305.014,373.182 C314.081,377.719 323.126,382.307 332.074,387.073 C334.697,388.47 335.904,387.771 337.056,385.337 C339.335,380.523 341.755,375.772 344.212,371.045 C345.327,368.901 346.634,366.896 349.647,368.453 C355.694,371.578 361.812,374.57 367.817,377.773 C370.288,379.091 371.117,380.936 369.888,383.994 C367.949,388.821 365.349,393.271 362.817,397.742 C360.874,401.171 361.848,402.784 365.057,404.298 C369.715,406.495 374.318,408.844 378.786,411.404 C384.429,414.638 385.385,414.529 388.359,408.81 C395.5,395.078 402.444,381.24 409.789,367.619 C411.57,364.315 410.781,362.767 407.906,361.368 C402.224,358.605 396.41,356.085 390.87,353.063 C365.6,339.28 339.892,326.345 314.315,313.155 C295.82,303.617 277.433,293.869 259.004,284.204 C257.098,283.204 255.248,281.651 253.418,284.336 C243.65,298.672 234.973,313.651 227.021,329.058 C226.126,330.793 226.192,332.218 228.134,333.223 C239.631,339.177 251.117,345.151 262.607,351.117 L262.607,351.117 Z M731.306,819.727 C731.191,819.206 731.099,818.361 730.817,817.586 C722.299,794.134 713.714,770.707 705.284,747.224 C704.096,743.915 702.632,743.377 699.368,744.563 C674.683,753.536 649.941,762.352 625.195,771.154 C621.858,772.341 620.996,773.809 622.378,777.473 C628.537,793.799 634.324,810.264 640.225,826.687 C641.459,830.123 642.788,832.94 647.299,830.379 C649.281,829.254 651.663,828.838 653.859,828.086 C657.724,826.761 660.265,828.052 661.625,831.896 C662.954,835.65 664.448,839.349 665.723,843.121 C666.502,845.423 667.626,845.714 669.853,844.828 C676.028,842.373 682.302,840.168 688.549,837.895 C701.828,833.062 715.116,828.254 728.396,823.423 C729.987,822.844 731.616,822.246 731.306,819.727 L731.306,819.727 Z M877.208,408.883 C877.33,409.656 877.428,410.655 877.649,411.626 C880.937,426.021 884.072,440.453 887.606,454.787 C889.578,462.788 889.866,462.655 898.141,460.763 C912.549,457.47 926.961,454.193 941.404,451.059 C944.694,450.345 945.162,448.964 944.404,445.798 C940.964,431.416 937.845,416.958 934.562,402.538 C932.385,392.979 930.087,383.447 927.926,373.885 C927.237,370.837 925.565,369.65 922.524,370.373 C915.889,371.95 909.096,373.049 902.646,375.185 C888.221,379.962 878.514,394.085 877.208,408.883 L877.208,408.883 Z M956.052,516.73 C956.052,512.238 955.883,508.732 956.099,505.249 C956.325,501.593 954.742,500.565 951.34,501.008 C945.079,501.822 938.793,502.456 932.514,503.139 C930.067,503.406 929.215,504.903 928.964,507.177 C928.489,511.478 928.046,515.76 928.044,520.107 C928.034,538.481 925.34,556.63 921.487,574.469 C917.145,594.57 911.429,614.402 903.419,633.43 C901.922,636.988 902.777,638.527 905.908,640.024 C910.558,642.247 915.124,644.663 919.622,647.183 C925.708,650.593 925.726,650.693 928.314,644.262 C944.914,603.01 954.272,560.194 956.052,516.73 L956.052,516.73 Z M388.72,707.329 C388.392,706.746 388.039,705.776 387.406,705.049 C380.097,696.644 372.678,688.332 365.442,679.865 C362.984,676.99 360.822,677.297 358.273,679.524 C354.021,683.238 349.69,686.861 345.425,690.559 C332.36,701.886 319.364,713.292 306.231,724.538 C300.126,729.765 300.003,729.637 305.019,735.678 C306.185,737.083 307.361,738.489 308.631,739.798 C316.739,748.149 316.748,748.14 325.277,740.209 C331.416,734.5 331.421,734.495 337.301,740.734 C338.784,742.308 340.365,743.82 341.642,745.552 C343.215,747.685 344.486,747.697 346.484,745.95 C359.763,734.345 373.13,722.843 386.483,711.323 C387.635,710.329 388.835,709.42 388.72,707.329 L388.72,707.329 Z M188.106,654.991 C186.467,650.54 184.416,645.785 182.988,640.85 C181.731,636.51 179.887,635.996 175.843,637.791 C155.935,646.63 135.895,655.172 115.909,663.835 C104.17,668.923 92.453,674.064 80.705,679.131 C77.687,680.432 76.785,682.099 78.337,685.344 C80.197,689.231 81.63,693.349 82.947,697.463 C84.258,701.556 86.398,701.926 90.101,700.257 C103.294,694.31 116.602,688.618 129.867,682.828 C148.156,674.846 166.454,666.882 184.718,658.843 C186.212,658.185 188.625,658.143 188.106,654.991 L188.106,654.991 Z M101.56,526.186 C101.56,526.145 101.56,526.104 101.561,526.063 C119.207,526.063 136.853,526.067 154.5,526.056 C156.416,526.056 158.844,526.716 158.882,523.561 C158.927,519.743 159.188,515.921 158.292,512.125 C157.706,509.639 156.63,508.65 153.844,508.674 C118.56,508.983 83.274,509.302 47.991,508.552 C46.172,508.513 44.536,508.537 44.637,511.001 C44.793,514.822 44.955,518.642 45.152,522.461 C45.298,525.283 46.533,526.311 49.625,526.277 C66.935,526.088 84.248,526.186 101.56,526.186 L101.56,526.186 Z M216.005,495.886 L216.005,495.903 C224,495.903 231.998,495.789 239.99,495.954 C243.701,496.031 245.04,494.498 244.972,490.913 C244.841,483.919 244.995,476.921 244.92,469.926 C244.854,463.779 244.038,462.993 237.981,462.974 C223.157,462.927 208.328,463.111 193.512,462.758 C189.816,462.67 188.817,464.022 188.506,467.086 C187.683,475.205 187.108,483.333 187,491.499 C186.958,494.765 188.418,495.938 191.52,495.911 C199.681,495.838 207.843,495.886 216.005,495.886 L216.005,495.886 Z M888.269,363.876 C889.25,363.451 890.338,363.053 891.358,362.527 C900.805,357.652 910.149,352.566 919.723,347.956 C923.612,346.084 923.825,344.022 922.224,340.505 C918.016,331.263 913.317,322.282 908.512,313.347 C906.988,310.513 905.29,310.202 902.51,311.884 C893.401,317.393 884.198,322.753 874.948,328.026 C868.837,331.509 868.8,331.384 872.023,337.579 C875.55,344.359 878.936,351.213 882.564,357.938 C883.846,360.316 884.778,363.261 888.269,363.876 L888.269,363.876 Z M573.066,795.092 L572.741,795.092 C572.741,787.096 572.853,779.098 572.683,771.106 C572.619,768.104 572.257,764.903 567.878,764.97 C561.715,765.065 555.55,765.055 549.386,765.075 C546.505,765.084 545.098,766.526 545.097,769.386 C545.095,775.717 545.128,782.048 545.074,788.378 C545.045,791.752 546.651,792.473 549.828,792.262 C555.47,791.885 561.148,792 566.81,791.994 C568.055,791.993 570.017,791.737 569.976,793.49 C569.936,795.176 567.991,794.874 566.726,794.938 C561.079,795.224 555.412,794.57 549.769,795.524 C546.344,796.102 544.739,797.864 545.087,801.297 C545.692,807.261 546.108,813.23 546.008,819.234 C545.967,821.649 547.055,822.973 549.737,822.567 C556.033,821.614 562.384,821.916 568.691,822.22 C572.073,822.383 573.153,821.306 573.104,818.082 C572.987,810.42 573.066,802.755 573.066,795.092 L573.066,795.092 Z M527.939,104.004 C526.273,104.004 524.607,104.007 522.941,104.004 C511.991,103.984 514.111,103 509.385,113.988 C508.524,115.99 508.166,118.087 511.741,117.496 C519.637,116.192 527.836,116.925 535.552,115.42 C548.305,112.934 561.122,113.905 573.832,113.469 C588.307,112.973 602.971,113.806 617.431,115.775 C621.967,116.392 622.616,115.21 620.429,111.491 C619.759,110.352 619.261,109.087 618.848,107.826 C617.628,104.102 615.394,102.117 611.196,102.234 C604.897,102.41 598.546,101.713 592.29,102.246 C570.864,104.071 549.336,101.64 527.939,104.004 L527.939,104.004 Z M780.317,159.891 C777.56,161.258 774.443,162.826 771.305,164.351 C768.323,165.8 769.094,166.791 771.455,168.263 C800.371,186.299 826.857,207.403 850.95,231.512 C857.427,237.993 857.156,237.869 860.256,229.284 C861.691,225.308 861.263,222.97 857.809,220.503 C851.995,216.349 846.449,211.815 840.872,207.337 C822.076,192.244 803.317,177.104 784.54,161.986 C783.402,161.069 782.504,159.71 780.317,159.891 L780.317,159.891 Z M447.019,133.076 C436.052,122.47 437.102,122.128 426.465,128.695 C424.92,129.649 423.185,130.289 421.558,131.115 C410.588,136.679 399.611,142.227 388.662,147.833 C376.818,153.898 365.115,160.25 353.136,166.034 C345.203,169.865 344.885,169.694 345.086,178.702 C345.126,180.457 344.259,182.817 346.032,183.811 C347.889,184.851 349.303,182.706 350.724,181.736 C380.554,161.367 412.594,145.377 447.019,133.076 L447.019,133.076 Z M214.269,348.794 C211.191,347.834 208.891,349.41 206.458,349.407 C201.801,349.403 199.675,352.089 198.813,356.303 C198.151,359.54 197.498,362.79 196.594,365.964 C190.366,387.839 184.081,409.697 177.783,431.552 C177.209,433.545 176.651,435.503 178.483,437.082 C180.62,438.926 182.834,440.687 185.082,442.396 C186.936,443.805 188.009,442.875 187.928,440.922 C187.772,437.157 189.293,433.768 189.96,430.194 C193.035,413.71 196.737,397.396 202.145,381.476 C205.868,370.519 209.558,359.557 214.269,348.794 L214.269,348.794 Z M305.957,479.888 C305.957,476.23 305.823,472.567 305.993,468.917 C306.188,464.728 304.567,462.791 300.193,462.931 C294.548,463.112 288.878,463.148 283.244,462.82 C279.478,462.601 278.043,464.097 278.056,467.628 C278.085,475.607 278.12,483.587 278.049,491.566 C278.021,494.797 279.541,495.981 282.637,495.936 C288.953,495.843 295.273,495.838 301.588,495.935 C304.846,495.985 306.038,494.424 305.975,491.358 C305.897,487.536 305.956,483.711 305.957,479.888 L305.957,479.888 Z M339.09,479.311 L339.074,479.311 C339.074,483.472 339.092,487.633 339.068,491.794 C339.052,494.394 340.136,495.903 342.894,495.897 C349.718,495.883 356.542,495.876 363.365,495.868 C365.892,495.866 366.95,494.458 366.949,492.084 C366.948,483.763 366.958,475.441 366.905,467.12 C366.889,464.555 365.558,463.053 362.902,463.039 C356.411,463.004 349.92,463.005 343.43,463.015 C340.585,463.019 339.114,464.486 339.096,467.328 C339.071,471.322 339.09,475.317 339.09,479.311 L339.09,479.311 Z M274.975,479.367 C274.975,475.206 274.938,471.044 274.987,466.884 C275.021,464.022 274.006,462.704 270.837,462.82 C264.521,463.052 258.187,463.024 251.868,462.833 C248.926,462.744 247.998,464.041 248.002,466.654 C248.014,474.977 248.029,483.299 247.988,491.621 C247.974,494.476 249.126,495.948 252.132,495.915 C258.29,495.849 264.45,495.819 270.607,495.926 C273.883,495.983 275.051,494.42 274.988,491.351 C274.906,487.358 274.968,483.362 274.975,479.367 L274.975,479.367 Z M336.122,480.487 L336.026,480.487 C336.026,475.823 336.031,471.159 336.023,466.495 C336.019,464.161 335.225,462.751 332.5,462.822 C326.34,462.984 320.174,463.023 314.012,462.97 C310.358,462.938 308.956,464.706 308.985,468.192 C309.049,475.854 309.064,483.518 308.97,491.18 C308.929,494.542 310.276,496.026 313.721,495.951 C319.882,495.817 326.051,495.793 332.21,495.959 C335.595,496.049 336.502,494.728 336.2,491.474 C335.862,487.841 336.122,484.152 336.122,480.487 L336.122,480.487 Z M940.283,378.166 C947.126,400.642 952.018,423.113 955.873,445.846 C966.838,440.311 967.544,438.564 964.803,427.267 C962.106,416.154 958.799,405.071 957.488,393.774 C956.267,383.259 951.706,378.194 940.283,378.166 L940.283,378.166 Z M956.011,484.399 C955.849,480.914 955.54,477.427 955.57,473.943 C955.593,471.193 954.255,470.405 951.845,470.628 C947.54,471.026 943.221,471.325 938.934,471.869 C925.546,473.568 925.551,473.605 927.664,486.812 C929.801,500.172 929.801,500.172 943.433,498.943 C956.316,497.782 956.316,497.782 956.011,484.399 L956.011,484.399 Z M546.961,869.276 L547.056,869.276 C547.056,872.107 547.234,874.952 547.016,877.767 C546.658,882.404 548.96,884.031 553.243,884.048 C558.722,884.069 564.227,883.987 569.668,884.505 C573.81,884.9 575.254,883.302 574.929,879.504 C574.319,872.374 573.669,865.253 574.31,858.082 C574.513,855.824 573.067,855.187 571.078,855.505 C566.589,856.223 562.048,855.155 557.66,855.506 C545.866,856.45 547.039,853.34 546.962,865.778 C546.955,866.944 546.961,868.11 546.961,869.276 L546.961,869.276 Z M901.169,641.535 C899.218,641.633 898.991,643.168 898.353,644.259 C894.91,650.14 892.466,656.573 888.494,662.158 C886.88,664.426 888.219,665.309 890.092,666.282 C896.589,669.658 903.081,673.053 909.47,676.627 C912.308,678.213 913.466,676.574 914.482,674.521 C917.287,668.852 919.965,663.122 922.774,657.455 C924.063,654.853 923.488,653.04 920.93,651.703 C915.328,648.777 909.761,645.784 904.165,642.848 C903.142,642.312 902.046,641.915 901.169,641.535 L901.169,641.535 Z M230.557,614.281 C230.23,614.332 229.876,614.319 229.579,614.444 C223.008,617.218 216.42,619.956 209.892,622.829 C208.063,623.634 207.833,625.391 208.477,627.104 C210.87,633.465 213.418,639.768 215.753,646.149 C216.785,648.97 218.416,649.044 220.798,647.995 C227.179,645.183 233.587,642.432 240.021,639.747 C242.32,638.787 243.077,637.418 242.002,635.085 C239.229,629.059 236.519,623.004 233.735,616.983 C233.113,615.638 232.454,614.194 230.557,614.281 L230.557,614.281 Z M907.373,687.694 C907.443,685.61 906.101,684.891 904.76,684.187 C898.579,680.942 892.357,677.775 886.232,674.43 C883.836,673.121 882.572,673.939 881.493,676.077 C878.574,681.86 875.727,687.685 872.597,693.352 C870.96,696.314 871.901,697.962 874.542,699.334 C880.433,702.393 886.32,705.46 892.179,708.579 C894.362,709.74 895.201,708.206 896.075,706.779 C899.542,701.111 902.982,695.426 906.409,689.734 C906.832,689.03 907.117,688.243 907.373,687.694 L907.373,687.694 Z M919.101,501.049 C926.152,501.009 926.325,500.765 925.513,494.938 C924.735,489.357 923.634,483.806 923.886,478.115 C923.996,475.626 923.519,472.869 920.308,473.434 C913.094,474.705 905.782,474.766 898.558,475.737 C897.009,475.945 895.919,476.626 896.169,478.747 C896.904,484.992 897.588,491.259 897.872,497.536 C898.073,501.987 900.281,503.425 904.267,502.96 C909.537,502.345 914.792,501.609 919.101,501.049 L919.101,501.049 Z M822.653,483.129 C819.768,483.507 814.191,484.326 808.591,484.93 C805.752,485.237 804.954,486.746 805.215,489.306 C805.871,495.732 806.503,502.16 807.123,508.589 C807.365,511.099 808.302,512.602 811.228,512.231 C817.801,511.397 824.389,510.68 830.979,509.991 C834.004,509.674 834.761,508.138 834.385,505.235 C833.724,500.146 833.404,495.011 832.974,489.893 C832.378,482.813 832.391,482.812 822.653,483.129 L822.653,483.129 Z M848.348,613.699 C846.1,613.385 845.27,614.578 844.534,615.967 C841.439,621.808 838.547,627.773 835.117,633.411 C833.615,635.881 834.138,636.891 836.295,638.025 C842.314,641.189 848.345,644.334 854.303,647.611 C856.922,649.052 858.253,647.901 859.429,645.699 C862.316,640.293 865.137,634.844 868.236,629.561 C870.153,626.293 869.19,624.393 866.128,622.809 C860.97,620.141 855.877,617.347 850.737,614.643 C849.866,614.185 848.898,613.913 848.348,613.699 L848.348,613.699 Z M857.433,659.53 C855.776,659.352 855.149,660.34 854.605,661.403 C851.427,667.612 848.272,673.833 845.083,680.037 C843.99,682.164 844.881,683.555 846.719,684.538 C852.724,687.745 858.753,690.904 864.768,694.091 C866.788,695.161 868.037,694.706 869.113,692.558 C872.236,686.323 875.394,680.092 878.906,674.074 C880.276,671.725 879.541,670.846 877.639,669.87 C871.435,666.686 865.24,663.482 859.039,660.291 C858.452,659.989 857.846,659.725 857.433,659.53 L857.433,659.53 Z M276.745,623.725 C283.055,620.941 290.386,617.787 297.632,614.447 C299.175,613.736 298.543,612.253 297.96,610.954 C295.171,604.737 292.388,598.516 289.721,592.246 C288.757,589.98 287.478,589.133 285.098,590.179 C279.162,592.789 273.189,595.312 267.25,597.916 C265.01,598.898 263.758,600.383 264.894,603.026 C267.649,609.437 270.353,615.871 273.063,622.301 C273.56,623.482 274.216,624.338 276.745,623.725 L276.745,623.725 Z M842.229,612.33 C842.575,610.543 841.415,610.065 840.403,609.508 C834.14,606.064 827.864,602.644 821.609,599.186 C819.574,598.061 818.511,599.157 817.647,600.792 C814.539,606.673 811.479,612.579 808.322,618.434 C806.947,620.983 807.366,622.832 809.977,624.19 C816.03,627.337 822.094,630.467 828.089,633.723 C830.023,634.774 830.755,634.455 831.761,632.397 C834.089,627.637 836.929,623.129 839.449,618.459 C840.552,616.415 841.38,614.223 842.229,612.33 L842.229,612.33 Z M341.859,565.613 C335.406,568.701 327.964,570.757 321.473,574.893 C319.757,575.986 320.169,577.733 320.913,579.379 C323.586,585.285 326.239,591.2 328.864,597.127 C329.721,599.063 330.923,600.187 333.132,599.22 C339.53,596.419 345.918,593.594 352.306,590.77 C354.161,589.95 354.681,588.667 353.839,586.741 C351.112,580.503 348.467,574.229 345.746,567.988 C345.124,566.561 344.183,565.409 341.859,565.613 L341.859,565.613 Z M825.741,644.46 C825.991,642.81 824.904,642.155 823.916,641.623 C817.621,638.231 811.286,634.914 804.973,631.555 C803.223,630.624 801.982,630.693 800.956,632.737 C797.979,638.67 794.97,644.596 791.702,650.37 C789.629,654.034 791.092,656.098 794.36,657.312 C799.704,659.297 804.606,662.112 809.432,665.038 C812.466,666.877 814.334,666.288 815.827,663.258 C817.808,659.238 819.822,655.233 821.898,651.261 C823.13,648.906 824.51,646.628 825.741,644.46 L825.741,644.46 Z M315.054,577.552 C314.73,577.618 314.383,577.632 314.086,577.759 C307.362,580.635 300.629,583.491 293.935,586.437 C292.477,587.079 291.484,588.127 292.327,590.007 C295.183,596.381 297.924,602.806 300.837,609.152 C301.631,610.883 302.949,612.241 305.218,611.238 C311.61,608.413 318.007,605.598 324.396,602.765 C326.453,601.853 326.94,600.557 325.903,598.38 C323.041,592.372 320.384,586.267 317.633,580.206 C317.097,579.024 316.793,577.584 315.054,577.552 L315.054,577.552 Z M852.91,658.241 C852.961,656.849 851.862,656.25 850.876,655.729 C844.56,652.395 838.211,649.122 831.875,645.827 C830.009,644.856 828.927,645.42 827.93,647.296 C824.817,653.158 821.548,658.939 818.254,664.703 C816.789,667.265 817.274,669.072 819.889,670.407 C825.653,673.352 831.48,676.186 837.122,679.349 C840.193,681.07 841.58,679.87 842.917,677.245 C845.929,671.333 849.075,665.489 852.167,659.617 C852.399,659.177 852.639,658.742 852.91,658.241 L852.91,658.241 Z M785.09,651.632 C786.916,651.604 787.759,650.546 788.399,649.363 C791.639,643.378 794.835,637.369 798.039,631.365 C799.244,629.108 797.878,628.007 796.105,627.065 C790.085,623.867 784.053,620.691 778.073,617.421 C776.306,616.455 774.959,616.381 773.961,618.355 C770.662,624.883 767.368,631.415 764.055,637.937 C763.003,640.009 763.526,641.092 765.732,642.137 C770.36,644.328 775.172,646.172 779.389,649.237 C781.078,650.465 783.328,650.92 785.09,651.632 L785.09,651.632 Z M886.261,476.835 C880.487,477.483 874.712,478.109 868.942,478.79 C867.012,479.018 865.403,479.478 865.727,482.141 C866.571,489.061 867.236,496.003 867.974,502.936 C868.216,505.218 869.048,506.937 871.772,506.162 C877.92,504.414 884.303,504.876 890.558,504.137 C894.45,503.678 895.299,501.841 894.913,498.519 C894.32,493.408 893.422,488.3 893.293,483.175 C893.167,478.179 891.272,476.059 886.261,476.835 L886.261,476.835 Z M815.492,598.218 C815.455,596.123 813.989,595.494 812.703,594.791 C807.025,591.688 801.328,588.621 795.628,585.557 C793.253,584.281 791.793,584.899 790.523,587.412 C787.459,593.473 784.205,599.449 780.782,605.315 C779.205,608.018 780.791,608.8 782.673,609.794 C788.69,612.972 794.743,616.088 800.668,619.431 C803.089,620.797 804.125,620.055 805.257,617.836 C808.344,611.782 811.638,605.832 814.834,599.833 C815.14,599.258 815.33,598.621 815.492,598.218 L815.492,598.218 Z M882.868,662.305 C884.633,662.538 885.457,661.438 886.087,660.257 C889.37,654.1 892.571,647.898 895.863,641.745 C896.879,639.845 896.453,638.855 894.493,637.875 C888.711,634.981 882.95,632.018 877.361,628.77 C874.442,627.073 872.75,627.824 871.318,630.469 C868.156,636.311 864.999,642.155 861.826,647.99 C860.468,650.487 861.967,651.629 863.932,652.619 C867.935,654.637 871.93,656.673 875.915,658.729 C878.267,659.943 880.323,661.74 882.868,662.305 L882.868,662.305 Z M864.054,496.912 C864.56,492.509 863.135,487.471 862.855,482.343 C862.749,480.411 861.913,478.937 859.772,479.469 C853.258,481.089 846.592,480.836 839.99,481.381 C836.93,481.633 835.46,483.019 835.686,486.614 C836.072,492.759 837.008,498.796 837.837,504.873 C838.281,508.129 839.84,508.944 842.771,509.008 C847.166,509.104 851.219,507.301 855.54,507.063 C864.264,506.582 864.263,506.552 864.054,496.912 L864.054,496.912 Z M544.966,751.314 C544.829,753.3 544.473,755.302 544.607,757.269 C544.804,760.173 545.313,763.384 549.37,762.669 C555.445,761.597 561.546,761.437 567.659,761.58 C570.999,761.657 572.155,760.106 572.011,757.071 C571.687,750.282 571.319,743.494 571.049,736.702 C570.945,734.103 569.384,733.858 567.33,733.968 C561.206,734.295 555.075,734.816 548.953,734.749 C544.997,734.705 543.784,736.531 544.236,739.893 C544.747,743.694 545.049,747.482 544.966,751.314 L544.966,751.314 Z M573.238,838.73 C573.176,838.73 573.114,838.731 573.052,838.731 C573.052,835.241 573.032,831.75 573.06,828.261 C573.077,826.085 572.366,824.86 569.874,824.93 C563.237,825.115 556.591,824.843 549.995,826.015 C547.447,826.468 545.882,827.531 546.264,830.228 C547.152,836.482 545.694,842.758 546.725,849.056 C547.167,851.755 547.795,852.983 550.518,852.961 C556.666,852.91 562.816,852.88 568.964,852.937 C571.923,852.964 573.22,851.511 573.234,848.695 C573.251,845.374 573.238,842.052 573.238,838.73 L573.238,838.73 Z M270.445,624.452 C270.318,624.103 270.17,623.626 269.972,623.17 C267.262,616.917 264.52,610.679 261.845,604.411 C261.003,602.438 260.091,601.647 257.67,602.448 C251.494,604.492 245.761,607.53 239.743,609.907 C236.872,611.04 235.926,612.754 237.274,615.744 C239.872,621.507 242.302,627.346 244.802,633.153 C245.785,635.436 247.05,636.594 249.792,635.315 C255.822,632.503 261.964,629.934 268.068,627.283 C269.303,626.746 270.651,626.357 270.445,624.452 L270.445,624.452 Z M642.726,893.716 C643.607,893.532 644.103,893.46 644.581,893.325 C656.397,889.974 668.179,886.5 680.324,884.456 C685.957,883.508 689.454,880.586 690.05,874.402 C690.523,869.486 690.412,869.15 685.6,870.723 C669.945,875.84 653.878,879.195 637.663,881.928 C636.099,882.192 633.822,881.383 633.162,883.174 C632.442,885.127 634.467,886.476 635.771,887.591 C638.174,889.648 639.046,893.617 642.726,893.716 L642.726,893.716 Z M302.182,793.078 C302.057,795.701 304.173,797.166 306.116,798.733 C314.915,805.826 323.789,812.828 332.498,820.029 C338.979,825.388 338.885,825.501 346.498,821.722 C350.93,819.521 350.912,819.221 347.025,816.387 C335.489,807.977 324.013,799.488 313.597,789.671 C311.419,787.618 309.148,785.661 306.882,783.703 C305.924,782.875 304.769,782.208 304.271,784.084 C303.509,786.956 302.917,789.873 302.182,793.078 L302.182,793.078 Z M841.998,790.865 C845.828,791.046 847.43,789.249 849,787.559 C857.119,778.82 865.233,770.076 873.258,761.25 C878.339,755.662 878.484,753.314 874.947,746.961 C873.836,744.966 872.983,744.561 871.367,746.501 C859.781,760.401 847.457,773.61 834.165,785.9 C832.833,787.132 832.568,788.123 834.505,788.739 C837.341,789.642 840.233,790.371 841.998,790.865 L841.998,790.865 Z M771.782,615.469 C771.35,614.829 771.057,613.896 770.44,613.559 C765.918,611.098 761.385,608.642 756.737,606.435 C754.978,605.599 753.578,606.871 752.585,608.353 C748.885,613.88 745.24,619.443 741.482,624.929 C740.032,627.044 740.192,628.485 742.563,629.722 C746.837,631.953 751.069,634.267 755.269,636.635 C758.217,638.298 760.203,637.611 761.746,634.622 C764.719,628.864 767.843,623.183 770.893,617.464 C771.201,616.885 771.431,616.264 771.782,615.469 L771.782,615.469 Z M359.771,587.516 C364.43,585.5 369.646,583.363 374.737,580.961 C376.147,580.296 375.686,578.647 375.24,577.347 C372.922,570.589 370.549,563.848 368.31,557.064 C367.652,555.071 366.724,554.228 364.683,555.214 C359.748,557.599 354.821,560.002 349.862,562.338 C348.044,563.195 347.431,564.167 348.382,566.222 C351.38,572.698 354.197,579.258 357.05,585.8 C357.48,586.788 357.963,587.569 359.771,587.516 L359.771,587.516 Z M775.324,606.001 C776.924,606.082 777.39,605.453 777.793,604.67 C780.913,598.625 783.911,592.511 787.235,586.58 C788.989,583.448 788.097,581.631 785.22,580.207 C781.053,578.145 776.775,576.304 772.937,573.616 C770.69,572.042 769.512,572.859 768.606,575.38 C767.148,579.439 765.411,583.412 763.563,587.314 C758.914,597.134 758.865,597.105 768.408,602.218 C770.886,603.546 773.342,604.916 775.324,606.001 L775.324,606.001 Z M782.104,509.175 C782.346,512.014 781.514,515.05 785.736,514.542 C790.682,513.947 795.637,513.416 800.597,512.957 C803.143,512.722 804.111,511.272 803.96,508.951 C803.53,502.322 803.005,495.7 802.56,489.073 C802.378,486.367 801.15,485.23 798.346,485.637 C794.4,486.209 790.433,486.724 786.456,486.965 C783.22,487.16 781.812,488.813 782.235,491.773 C783.088,497.752 783.244,503.692 782.104,509.175 L782.104,509.175 Z M561.221,731.005 C571.051,730.948 571.053,730.948 571.048,720.899 C571.047,718.902 571.005,716.904 571.009,714.907 C571.015,712.199 569.611,711.11 566.979,710.968 C560.173,710.602 553.367,710.18 546.577,709.596 C544.135,709.387 542.971,710.096 543.457,712.566 C544.335,717.03 543.819,721.53 543.964,726.012 C544.133,731.267 545.407,732.458 550.773,731.658 C554.255,731.138 557.726,731.012 561.221,731.005 L561.221,731.005 Z M645.098,838.888 C645.936,841.704 646.28,843.12 646.776,844.48 C649.165,851.032 651.669,857.543 653.986,864.12 C655.716,869.029 657.101,869.717 662.175,867.884 C684.494,859.817 706.904,851.989 729.114,843.631 C740.025,839.525 739.884,841.761 735.327,830.036 C734.821,828.733 734.745,826.318 732.919,826.88 C730.518,827.618 732.216,829.669 732.674,831.071 C734.593,836.955 733.003,839.608 726.881,840.995 C720.404,842.461 714.068,844.333 708.101,847.402 C701.12,850.991 699.983,850.597 695.173,844.585 C694.327,843.527 694.01,841.036 692.235,841.861 C690.228,842.794 691.885,844.839 692.168,846.308 C693.325,852.301 692.067,854.059 686.04,855.088 C679.282,856.243 672.925,858.633 666.86,861.827 C660.114,865.379 658.169,864.751 654.493,857.899 C653.786,856.581 653.067,855.251 652.553,853.853 C651.532,851.073 650.031,848.256 653.244,845.725 C654.783,844.512 653.864,843.252 652.603,842.541 C650.612,841.418 648.494,840.522 645.098,838.888 L645.098,838.888 Z M615.126,95.016 C615.153,94.598 615.18,94.18 615.206,93.762 C614.287,93.454 613.389,93.013 612.444,92.858 C601.453,91.062 590.327,91.35 579.264,91.074 C567.348,90.778 555.411,91.387 543.482,91.564 C534.346,91.699 525.482,94.646 516.283,94.155 C515.314,94.103 513.928,94.298 513.948,95.477 C513.976,97.077 515.529,96.95 516.639,96.854 C518.951,96.655 521.254,95.993 523.549,96.041 C548.483,96.563 573.386,95.028 598.31,95.017 C603.916,95.014 609.521,95.016 615.126,95.016 L615.126,95.016 Z M653.974,874.123 C669.41,874.754 742.717,847.953 751.521,838.888 C718.638,850.766 686.306,862.444 653.974,874.123 L653.974,874.123 Z M867.185,217.853 C855.553,200.791 799.003,156.595 785.659,152.424 C813.054,174.41 839.746,195.832 867.185,217.853 L867.185,217.853 Z M340.492,163.217 C370.84,147.306 401.696,132.386 431.743,115.887 C399.329,127.761 368.439,142.613 340.492,163.217 L340.492,163.217 Z M316.842,764.825 C320.217,764.868 325.922,760.922 325.48,758.442 C324.821,754.744 322.685,751.997 318.445,751.986 C314.842,751.976 312.725,749.619 310.609,747.262 C308.164,744.541 305.824,741.726 303.41,738.976 C301.64,736.959 299.768,736.74 297.945,738.894 C296.417,740.7 294.844,742.35 297.287,744.847 C302.739,750.419 308.308,755.904 312.759,762.375 C313.701,763.745 314.895,764.989 316.842,764.825 L316.842,764.825 Z M655.329,850.453 C655.483,855.981 660.1,861.635 663.01,860.133 C670.732,856.147 678.916,853.549 687.161,851.024 C689.616,850.273 689.956,848.644 688.927,846.337 C687.178,842.416 684.492,842.959 681.088,843.901 C674.065,845.845 667.675,851.617 659.429,847.015 C656.985,845.651 655.458,848.424 655.329,850.453 L655.329,850.453 Z M169.357,432.98 C177.154,404.835 184.951,376.689 193.12,347.203 C185.613,354.605 166.352,423.166 169.357,432.98 L169.357,432.98 Z M298.056,732.031 C293.746,735.393 289.942,738.234 286.676,741.763 C285.17,743.39 285.11,744.879 286.583,746.578 C294.192,755.356 301.762,764.168 309.348,772.967 C310.376,774.16 311.541,775.288 313.147,774.067 C315.536,772.251 318.339,770.838 319.979,767.772 C314.542,770.448 312.003,767.481 309.214,763.597 C305.563,758.513 302.054,753.285 297.001,749.247 C290.571,744.11 290.695,742.158 296.426,736.018 C297.189,735.202 298.329,734.588 298.056,732.031 L298.056,732.031 Z M337.246,779.261 C336.008,777.655 334.653,775.798 333.198,774.024 C327.437,766.997 327.42,767 320.383,772.513 C319.342,773.329 318.468,774.382 317.367,775.093 C314.098,777.204 314.609,779.061 316.985,781.779 C327.222,793.49 324.187,792.016 334.603,783.108 C335.726,782.147 337.023,781.319 337.246,779.261 L337.246,779.261 Z M749.667,818.281 C746.27,818.265 736.767,822.8 736.739,824.45 C736.686,827.547 742.321,838.362 743.933,838.256 C748.283,837.972 757.368,833.17 757.31,831.185 C757.18,826.745 752.173,818.292 749.667,818.281 L749.667,818.281 Z M639.09,875.672 C643.077,874.959 647.078,873.377 650.941,871.429 C652.168,870.81 652.198,869.834 651.939,868.493 C649.447,855.62 645.487,853.733 633.779,859.962 C633.487,860.118 633.17,860.232 632.891,860.406 C631.953,860.991 631.304,861.906 631.879,862.896 C633.831,866.253 634.253,870.137 635.762,873.636 C636.337,874.969 637.201,875.857 639.09,875.672 L639.09,875.672 Z M724.654,828.488 C716.573,831.712 707.026,833.985 698.228,838.318 C696.81,839.016 696.475,840.508 697.529,841.685 C699.198,843.548 700.609,847.248 703.552,845.769 C711.312,841.87 719.542,839.471 727.719,836.813 C729.532,836.224 731.043,834.907 729.92,832.639 C729.017,830.815 728.729,828.253 724.654,828.488 L724.654,828.488 Z M313.945,658.365 C310.551,658.233 306.13,662.253 306.123,665.476 C306.116,669.377 312.803,678.327 315.81,678.441 C318.407,678.539 325.519,672.489 325.565,670.144 C325.641,666.196 318.074,658.525 313.945,658.365 L313.945,658.365 Z M806.196,463.101 C814.88,462.85 816.653,460.29 813.967,451.889 C813.664,450.945 813.323,450.004 813.119,449.037 C812.321,445.254 809.663,443.959 806.192,444.023 C802.62,444.088 800.175,445.947 799.497,449.49 C799.066,451.74 799.033,454.098 799.084,456.402 C799.213,462.307 800.301,463.271 806.196,463.101 L806.196,463.101 Z M296.286,342.469 C293.492,343.562 292.544,345.137 294.234,347.538 C296.921,351.354 296.001,353.111 291.354,352.71 C289.137,352.518 288.471,354.008 287.853,355.568 C287.126,357.401 288.303,358.232 289.728,359.051 C300.81,365.419 303.389,364.507 307.984,352.578 C308.418,351.453 309.041,350.263 308.153,349.298 C304.882,345.746 300.011,345.022 296.286,342.469 L296.286,342.469 Z M289.163,342.893 C289.272,342.008 288.847,341.346 288.139,341.452 C284.304,342.023 283.585,339.769 282.811,336.635 C282.107,333.787 277.109,332.379 275.465,334.351 C272.83,337.513 270.674,341.082 269.322,345.028 C268.855,346.393 269.29,347.799 270.547,348.521 C273.84,350.415 277.217,352.164 280.579,353.936 C282.465,354.93 283.229,353.337 284.189,352.266 C285.28,351.048 285.289,349.964 283.85,348.954 C282.44,347.966 281.153,346.83 282.241,344.863 C283.263,343.015 284.794,343.007 286.492,343.837 C287.765,344.461 288.723,344.286 289.163,342.893 L289.163,342.893 Z M210.091,675.913 C205.95,675.765 203.316,679.66 205.158,683.392 C207.137,687.404 209.318,691.315 211.364,695.294 C212.155,696.83 212.482,699.416 215.001,697.494 C217.016,695.958 221.848,696.184 219.713,691.555 C217.497,686.754 214.905,682.125 212.449,677.435 C211.97,676.52 211.253,675.837 210.091,675.913 L210.091,675.913 Z M963.093,379.644 C962.683,379.74 962.273,379.837 961.863,379.934 C963.565,386.949 965.378,393.939 966.942,400.985 C969.24,411.337 971.332,421.735 973.594,432.096 C973.839,433.219 973.645,435.256 975.62,434.843 C977.114,434.53 976.566,433.017 976.311,431.885 C973.772,420.585 971.475,409.223 968.615,398.005 C967.041,391.831 966.389,385.299 963.093,379.644 L963.093,379.644 Z M644.196,902.708 C644.449,902.902 644.737,903.292 644.939,903.252 C658.744,900.547 672.436,897.357 685.958,893.471 C687.2,893.113 689.57,893.378 689.049,891.195 C688.65,889.52 686.782,890.32 685.583,890.625 C672.401,893.986 659.231,897.39 646.068,900.821 C645.17,901.055 644.011,901.272 644.196,902.708 L644.196,902.708 Z M852.105,797.837 C864.329,787.682 875.118,776.192 884.331,763.236 C873.008,774.229 861.62,785.162 852.105,797.837 L852.105,797.837 Z M297.646,802.1 L296.476,803.567 C307.572,814.22 319.532,823.791 332.247,832.416 C332.608,831.969 332.969,831.521 333.33,831.073 C321.435,821.416 309.54,811.758 297.646,802.1 L297.646,802.1 Z M861.504,460.703 C861.589,458.249 859.862,457.971 858.162,458.069 C854.534,458.279 850.917,458.683 847.297,459.013 C845.606,459.167 843.71,459.321 843.722,461.553 C843.733,463.692 844.016,465.916 846.527,466.867 C848.641,467.669 849.43,466.397 850.299,464.789 C851.584,462.41 853.344,461.819 855.389,464.076 C856.432,465.227 857.584,466.283 859.241,465.396 C861.094,464.404 861.102,462.413 861.504,460.703 L861.504,460.703 Z M354.617,656.348 C354.359,653.04 356.031,652.078 359.408,653.415 C361.056,654.068 362.46,653.763 363.14,652.095 C364.025,649.924 362.35,648.322 361.472,646.621 C360.81,645.338 359.579,645.409 358.486,646.22 C355.02,648.79 351.574,651.389 348.124,653.982 C346.856,654.935 346.373,656.216 347.614,657.343 C349.145,658.733 350.523,660.823 353.055,660.181 C354.653,659.776 355.731,658.754 354.617,656.348 L354.617,656.348 Z M331.617,680.162 C331.592,677.667 330.027,675.056 328.563,675.068 C327.34,675.079 318.738,681.803 319.076,682.644 C320.118,685.234 322.079,687.095 324.914,687.34 C327.149,687.533 331.639,682.436 331.617,680.162 L331.617,680.162 Z M808.993,466.782 C806.324,467.873 801.698,465.066 801.671,470.344 C801.657,473.081 803.147,475.809 806.986,475.588 C811.977,475.302 814.909,473.072 814.646,469.085 C814.338,464.426 810.696,468.02 808.993,466.782 L808.993,466.782 Z M329.888,748.874 C331.852,749.057 333.814,749.343 335.781,749.386 C337.205,749.418 338.784,748.759 338.123,747.096 C336.948,744.138 334.708,741.79 331.927,740.293 C329.74,739.116 328.751,741.566 327.612,742.7 C325.824,744.48 321.746,745.626 322.594,747.953 C323.444,750.285 327.36,748.504 329.888,748.874 L329.888,748.874 Z M661.154,843.617 C660.497,832.323 657.578,829.787 649.829,832.971 C648.919,833.344 647.766,833.402 647.705,834.671 C647.65,835.833 648.626,836.402 649.464,836.894 C653.155,839.06 656.879,841.167 661.154,843.617 L661.154,843.617 Z M231.164,686.538 C228.137,681.854 226.48,675.81 222.558,670.99 C221.824,670.087 220.686,670.678 219.84,671.266 C218.992,671.856 219.087,672.605 219.522,673.446 C222.115,678.46 224.669,683.495 227.271,688.504 C227.686,689.304 228.43,689.697 229.362,689.384 C230.4,689.037 231.017,688.318 231.164,686.538 L231.164,686.538 Z" sketch:type="MSShapeGroup"></path>
            <path class="center" d="M718.14,508.649 C717.326,545.346 700.119,583.328 665.492,612.581 C640.912,633.346 611.973,645.277 579.639,646.381 C529.825,648.082 488.387,630.103 456.805,590.874 C440.457,570.568 430.04,547.375 426.496,521.755 C420.615,479.247 431.555,440.937 458.445,407.298 C461.008,404.092 464.097,403.521 467.765,404.097 C472.335,404.814 476.761,406.626 481.563,405.533 C483.685,405.049 484.277,407.17 485.138,408.476 C492.468,419.584 499.796,430.694 506.997,441.886 C510.596,447.479 511.453,447.812 516.282,443.071 C526.918,432.633 533.105,414.593 527.087,398.495 C525.393,393.964 523.778,389.453 521.07,385.393 C520.463,384.483 519.924,383.123 520.136,382.139 C521.469,375.961 522.945,369.81 524.548,363.696 C525.065,361.726 527.013,361.116 528.781,360.548 C544.81,355.394 561.246,353.827 578.029,354.41 C597.975,355.103 616.803,359.895 634.815,368.365 C656.84,378.722 674.823,393.892 689.317,413.352 C707.972,438.397 718.061,468.651 718.14,508.649 L718.14,508.649 Z M571.756,382.871 C558.776,382.638 546.283,385.158 533.976,388.98 C530.117,390.179 528.583,391.672 530.211,396.174 C536.987,414.921 530.601,436.956 515.512,448.375 C510.776,451.959 508.933,451.517 505.686,446.342 C500.558,438.169 495.283,430.087 490.16,421.911 C488.365,419.047 486.513,418.717 484.323,421.32 C481.325,424.882 478.066,428.278 475.474,432.119 C461.426,452.94 453.549,475.725 454.004,501.101 C454.05,503.65 455.04,506.859 452.203,508.44 C448.807,510.331 448.818,512.897 449.461,516.074 C450.12,519.332 450.524,522.644 450.985,525.94 C451.199,527.465 451.36,529.439 453.228,529.265 C457.503,528.868 458.049,531.9 458.959,534.749 C463.512,549.011 470.271,562.134 479.643,573.812 C481.83,576.537 484.293,578.67 481.74,582.403 C480.979,583.515 481.551,584.621 482.499,585.506 C485.906,588.686 489.269,591.914 492.714,595.052 C493.83,596.068 495.355,597.145 496.768,596.21 C500.423,593.792 503.034,595.96 505.811,597.82 C519.123,606.736 533.583,612.76 549.423,615.518 C552.205,616.003 552.81,615.385 553.144,612.776 C554.634,601.096 556.607,589.473 557.849,577.77 C558.372,572.848 560.516,571.834 564.942,571.914 C573.229,572.062 581.591,572.897 589.734,570.196 C593.373,568.989 596.955,567.739 600.355,565.958 C601.555,565.33 603.125,564.853 603.925,566.313 C604.869,568.037 603.204,568.574 602.015,569.108 C600.649,569.721 599.227,570.208 597.848,570.793 C588.42,574.792 578.509,575.59 568.455,574.964 C563.727,574.669 561.336,575.81 560.473,581.144 C559.141,589.376 558.642,597.673 557.497,605.904 C555.863,617.651 555.809,617.714 567.904,617.835 C571.678,617.873 575.197,617.786 577.302,621.825 C578.061,623.281 579.914,623.043 581.426,622.858 C585.881,622.312 590.329,621.715 594.788,621.216 C595.964,621.084 597.598,621.217 597.447,619.71 C596.861,613.876 601.636,614.057 604.959,613.026 C640.31,602.058 665.471,579.817 680.218,545.769 C681.701,542.343 681.276,540.16 678.469,538.06 C668.311,530.461 660.04,520.747 650.192,512.799 C649.211,512.007 648.468,510.423 646.901,511.105 C645.65,511.649 646.004,513.125 645.814,514.228 C643.847,525.64 638.472,535.566 632.344,545.161 C631.657,546.237 630.977,547.965 629.376,546.989 C627.494,545.841 628.841,544.452 629.661,543.202 C631.031,541.114 632.427,539.035 633.669,536.87 C642.315,521.806 646.014,505.724 643.122,488.442 C641.045,476.03 635.515,465.122 627.823,455.254 C624.093,450.468 624.196,448.956 628.818,444.8 C631.29,442.578 633.709,440.211 636.493,438.447 C639.211,436.724 638.104,432.523 640.983,431.582 C646.365,429.821 649.418,425.285 653.624,422.15 C657.082,419.571 656.3,417.846 653.512,415.688 C651.934,414.468 650.516,413.043 648.999,411.741 C647.939,410.832 646.769,409.697 647.598,408.361 C650.007,404.477 647.037,402.971 644.65,401.289 C641.931,399.374 639.009,397.748 636.286,395.839 C634.121,394.321 632.356,392.932 630.029,395.876 C628.462,397.858 626.383,396.404 624.606,395.459 C608.074,386.677 590.27,383.271 571.756,382.871 L571.756,382.871 Z M579.192,643.318 C584.4,642.681 589.977,642.064 595.532,641.296 C598.653,640.864 601.784,640.348 604.824,639.541 C606.37,639.13 608.79,638.659 607.267,635.938 C604.729,631.402 598.773,628.755 593.476,629.559 C589.703,630.132 585.898,630.72 582.096,630.812 C578.704,630.894 576.222,632.195 574.792,635.073 C573.5,637.674 569.708,639.933 571.012,642.657 C572.443,645.65 576.148,642.747 579.192,643.318 L579.192,643.318 Z M490.908,609.725 C491.934,606.071 490.114,602.826 486.718,600.089 C484.009,597.907 481.179,595.753 478.95,593.123 C475.184,588.677 470.73,589.003 465.782,590.084 C462.414,590.82 461.798,591.933 464.183,594.599 C470.974,602.19 478.437,609.038 486.553,615.178 C487.562,615.941 488.545,617.374 489.99,616.655 C491.435,615.936 490.758,614.281 490.892,613.02 C490.979,612.197 490.908,611.357 490.908,609.725 L490.908,609.725 Z M428.596,504.198 C429.074,515.703 431.024,526.922 433.42,538.071 C434.089,541.185 435.434,541.841 438.126,539.338 C443.118,534.696 444.096,529.452 443.034,522.799 C441.145,510.978 438.161,506.441 428.596,504.198 L428.596,504.198 Z M655.807,397.988 C658.204,397.326 660.587,396.573 663.014,396.016 C667.116,395.076 666.547,393.541 663.882,391.279 C655.851,384.464 647.096,378.745 637.903,373.646 C635.259,372.179 634.878,373.078 634.945,375.712 C635.116,382.483 637.241,388.038 643.716,391.104 C647.892,393.081 650.902,397.122 655.807,397.988 L655.807,397.988 Z M680.089,506.925 C688.608,507.087 690.455,505.437 689.654,498.493 C689.397,496.27 688.721,494.738 685.999,494.881 C682.031,495.089 678.049,495.038 674.073,495.121 C672.355,495.156 670.858,495.414 670.178,497.437 C668.231,503.229 670.608,506.811 676.609,506.922 C677.769,506.944 678.929,506.925 680.089,506.925 L680.089,506.925 Z M678.323,492.128 L678.323,491.953 C680.646,491.953 682.969,491.987 685.291,491.941 C686.667,491.914 688.156,491.628 688.489,490.103 C689.256,486.594 688.754,482.909 687.235,479.914 C685.885,477.25 683.059,479.78 680.908,479.966 C678.438,480.179 676.015,480.921 673.545,481.156 C668.698,481.616 668.501,484.429 668.922,488.476 C669.377,492.861 671.878,492.485 674.841,492.15 C675.987,492.02 677.161,492.128 678.323,492.128 L678.323,492.128 Z M664.237,465.605 C670.05,464.922 674.263,462.895 678.628,461.306 C681.511,460.257 682.174,458.6 680.85,455.944 C680.109,454.456 679.339,452.976 678.714,451.438 C677.762,449.099 676.407,448.49 674.078,449.776 C670.3,451.862 666.429,453.781 662.578,455.734 C660.494,456.791 660.151,458.404 661.204,460.286 C662.302,462.249 661.661,465.656 664.237,465.605 L664.237,465.605 Z M677.124,509.533 C677.12,509.614 677.117,509.696 677.114,509.777 C676.451,509.777 675.784,509.819 675.124,509.77 C672.553,509.577 669.869,508.501 668.987,512.63 C668.173,516.443 668.617,519.077 672.76,520.139 C676.612,521.127 680.454,522.16 684.325,523.07 C685.673,523.387 686.885,523.182 687.589,521.592 C690.427,515.187 687.875,510.476 681.082,509.771 C679.768,509.635 678.443,509.609 677.124,509.533 L677.124,509.533 Z M651.464,442.405 C652.325,441.872 653.193,441.395 653.996,440.827 C656.985,438.716 659.835,436.378 662.96,434.495 C666.527,432.346 667.22,430.211 663.932,427.253 C662.954,426.374 662.251,425.191 661.422,424.148 C660.042,422.413 658.582,421.986 656.812,423.69 C653.698,426.685 650.504,429.596 647.391,432.592 C646.002,433.929 645.781,435.617 646.973,437.102 C648.387,438.863 649.041,441.305 651.464,442.405 L651.464,442.405 Z M671.063,478.511 C673.044,478.158 675.494,477.775 677.921,477.28 C687.295,475.367 687.948,474.051 683.997,465.235 C683.795,464.784 683.701,464.275 683.451,463.857 C683.082,463.238 682.46,462.936 681.774,463.211 C677.034,465.114 672.159,466.761 667.633,469.086 C664.964,470.457 665.946,473.492 666.484,475.863 C666.944,477.892 668.473,478.809 671.063,478.511 L671.063,478.511 Z M674.551,443.509 C673.474,440.59 671.715,437.817 669.479,435.355 C668.818,434.627 667.961,434.895 667.237,435.412 C663.343,438.192 659.341,440.837 655.6,443.812 C652.446,446.321 655.478,448.531 656.442,450.737 C657.198,452.465 658.227,454.092 660.58,452.888 C664.547,450.859 668.509,448.819 672.455,446.75 C673.646,446.126 674.772,445.385 674.551,443.509 L674.551,443.509 Z M658.147,504.935 L658.147,505.007 C659.972,505.007 661.797,505.03 663.621,505.001 C665.657,504.969 667.307,504.422 667.118,501.9 C666.947,499.622 667.258,496.487 664.223,496.376 C659.99,496.221 655.616,495.612 651.448,497.247 C648.854,498.264 648.82,500.52 648.925,502.647 C649.039,504.949 651.029,504.857 652.674,504.919 C654.496,504.988 656.323,504.935 658.147,504.935 L658.147,504.935 Z M641.462,462.586 C645.471,460.643 650.187,459.523 653.641,456.435 C655.92,454.399 653.181,452.235 652.123,450.366 C651.068,448.502 649.381,448.081 647.494,449.382 C644.503,451.443 641.54,453.546 638.515,455.554 C637.31,456.354 636.236,457.098 637.267,458.677 C638.301,460.26 638.705,462.531 641.462,462.586 L641.462,462.586 Z M635.44,453.514 C638.503,451.365 641.868,448.979 645.261,446.634 C646.647,445.676 649.181,445.19 646.894,442.796 C644.979,440.791 643.486,436.868 639.911,439.174 C636.783,441.191 634.351,444.299 631.662,446.977 C630.638,447.996 630.178,449.273 631.224,450.534 C632.242,451.762 632.962,453.444 635.44,453.514 L635.44,453.514 Z M655.367,459.085 C651.25,461.365 647.127,463.507 643.168,465.919 C641.783,466.764 642.402,468.296 643.103,469.512 C643.821,470.758 644.169,472.669 646.149,472.236 C650.387,471.309 654.479,469.852 658.332,467.851 C660.368,466.793 659.671,464.916 658.911,463.474 C658.061,461.86 657.892,459.528 655.367,459.085 L655.367,459.085 Z M663.322,477.198 C663.386,471.999 661.86,470.881 656.759,472.471 C654.239,473.257 651.78,474.276 649.222,474.889 C645.338,475.82 645.598,477.943 647.118,480.76 C648.696,483.683 651.196,482.628 653.23,481.989 C656.649,480.915 661.028,482.219 663.303,478.177 C663.444,477.926 663.322,477.528 663.322,477.198 L663.322,477.198 Z M653.569,493.587 C655.794,492.834 658.643,493.011 661.465,492.981 C664.948,492.944 666.164,491.126 665.879,487.857 C665.583,484.47 663.572,483.794 660.651,484.32 C657.709,484.85 654.751,485.296 651.807,485.818 C649.521,486.223 648.194,487.314 648.754,489.936 C649.263,492.317 650.186,494.047 653.569,493.587 L653.569,493.587 Z M682.344,537.079 C683.732,536.951 686.304,529.28 685.537,527.71 C685.27,527.163 684.748,526.489 684.223,526.36 C679.891,525.3 675.536,524.328 671.174,523.398 C670.367,523.226 669.369,523.357 669.181,524.364 C669.081,524.903 669.36,525.735 669.767,526.113 C673.522,529.604 677.336,533.032 681.155,536.454 C681.505,536.768 682.011,536.909 682.344,537.079 L682.344,537.079 Z M651.256,508.056 C650.969,508.342 650.683,508.629 650.396,508.916 C653.382,511.401 656.263,514.031 659.401,516.306 C660.85,517.356 663.019,517.809 664.524,516.46 C666.095,515.051 666.092,512.848 665.744,510.855 C665.354,508.621 663.563,508.098 661.623,508.07 C658.168,508.02 654.712,508.056 651.256,508.056 L651.256,508.056 Z" sketch:type="MSShapeGroup"></path>
            <path class="dinnertable" d="M502.026,290.026 C501.451,290.363 500.885,290.714 500.301,291.035 C498.926,291.791 498.27,294.233 496.289,293.362 C494.272,292.476 495.271,290.519 495.464,288.921 C495.541,288.281 495.685,287.303 495.344,287.012 C491.077,283.368 489.494,278.567 488.405,273.226 C487.687,269.709 484.682,268.764 481.394,270.592 C478.697,272.092 475.293,272.25 473.068,274.756 C473.388,275.156 473.529,275.519 473.769,275.605 C476.138,276.457 478.385,272.136 479.358,273.974 C481.461,277.945 484.851,281.74 484.398,286.663 C484.092,289.994 484.475,292.459 487.865,294.015 C489.483,294.758 490.366,296.139 488.273,297.843 C481.881,303.044 474.213,304.915 466.419,306.443 C463.852,306.946 463.164,305.32 463.625,303.1 C463.954,301.516 465.224,299.846 463.815,298.38 C460.486,294.916 459.349,290.673 457.855,286.222 C456.558,282.358 457.263,281.725 460.36,280.882 C461.238,280.642 461.954,279.806 462.56,278.745 C459.419,278.451 456.966,280.475 454.215,281.399 C451.532,282.3 448.882,283.307 446.251,284.351 C445.126,284.798 443.983,285.579 444.922,286.951 C445.658,288.026 446.848,287.453 447.529,286.748 C451.081,283.067 451.638,284.518 453.09,288.75 C454.473,292.783 457.015,296.375 456.559,300.941 C456.528,301.251 456.67,301.596 456.792,301.9 C457.712,304.196 462.118,306.455 460.719,307.484 C457.465,309.875 454.411,312.677 450.855,314.724 C446.934,316.982 442.423,316 438.276,317.275 C435.603,318.097 435.687,315.156 436.143,313.512 C436.829,311.037 435.995,309.592 434.277,307.884 C432.051,305.672 430.059,303.063 430.037,299.642 C430.021,297.259 428.554,295.312 427.276,293.911 C420.162,286.113 418.399,275.829 414.099,266.745 C413.104,264.644 412.499,262.363 411.581,260.221 C408.403,252.807 408.516,252.489 416.06,249.2 C416.638,248.948 417.187,248.63 417.941,248.245 C416.737,246.674 415.27,246.949 414.342,247.699 C410.492,250.809 409.759,248.397 408.316,245.136 C406.793,241.694 405.547,238.412 405.848,234.636 C406.068,231.873 404.27,230.448 402.226,229.139 C401.072,228.401 400.04,227.281 400.108,225.92 C400.216,223.757 402.09,224.809 403.228,224.619 C404.87,224.344 405.705,223.004 406.837,222.067 C410.012,219.443 413.428,217.547 417.753,218.089 C419.433,218.299 421.053,218.28 422.512,217.154 C423.478,216.409 424.643,216.023 425.713,216.946 C426.805,217.888 426.288,219.057 425.985,220.192 C425.732,221.141 425.118,222.693 425.484,223.001 C430.468,227.186 430.222,234.111 433.973,238.894 C434.809,239.96 435.66,241.158 437.245,240.358 C438.63,239.659 438.003,238.338 437.957,237.222 C437.88,235.36 437.542,233.628 436.233,232.14 C434.887,230.609 433.965,228.793 434.054,226.691 C434.208,223.057 433.779,219.966 430.171,217.727 C428.185,216.495 427.241,214.171 431.169,213.46 C432.203,213.273 433.191,212.331 434.011,211.54 C438.951,206.776 445.451,206.707 451.602,205.791 C453.914,205.447 454.259,207.732 453.813,209.338 C452.961,212.412 454.021,214.464 456.418,216.211 C458.592,217.795 459.611,219.995 459.467,222.703 C459.283,226.158 461.469,228.358 464.126,229.534 C465.434,230.113 468.481,229.364 469.123,228.269 C470.22,226.394 469.096,223.601 468.001,221.974 C465.457,218.195 463.979,214.431 464.559,209.837 C464.822,207.752 462.759,207.356 461.417,206.43 C459.159,204.873 458.694,203.496 461.464,201.557 C467.354,197.434 473.019,193.641 480.877,193.953 C484.254,194.086 485.407,194.724 484.756,197.531 C484.035,200.64 484.882,202.587 487.389,204.325 C489.096,205.508 489.663,207.494 490.063,209.523 C491.595,217.287 493.552,218.44 500.68,215.777 C502.474,215.107 504.166,214.16 506.062,213.266 C504.461,211.574 503.353,212.674 502.237,213.191 C501.242,213.652 499.94,213.892 499.66,212.771 C498.618,208.596 494.837,205.288 495.501,200.675 C495.944,197.599 495.128,195.741 492.434,194.091 C489.822,192.491 489.096,191.001 492.852,188.865 C498.778,185.494 504.359,182.127 511.51,181.653 C515.285,181.403 516.228,182.31 515.532,185.524 C515.038,187.806 515.739,189.557 517.34,190.882 C521.184,194.063 520.578,199.097 522.591,203.038 C523.318,204.462 522.306,205.586 520.73,205.904 C518.883,206.276 517.199,206.855 516.131,209.257 C521.177,208.41 525.27,205.969 529.608,204.286 C532.884,203.016 534.962,203.703 536.226,207.158 C540.28,218.238 544.422,229.282 549.159,240.101 C550.619,243.437 547.521,244.591 545.341,245.405 C541.74,246.748 538.286,248.318 534.837,250.09 C535.057,250.414 535.156,250.748 535.356,250.827 C537.404,251.638 539.938,247.908 541.182,250.529 C543.27,254.929 547.26,258.893 546.366,264.228 C545.936,266.789 546.668,267.695 548.605,268.905 C551.306,270.591 552.319,272.706 548.184,273.984 C546.503,274.504 545.326,275.56 544.061,276.663 C541.189,279.166 537.935,280.687 533.98,279.781 C532.467,279.434 531.038,279.309 529.758,280.482 C528.763,281.395 527.56,282.391 526.238,281.373 C524.944,280.375 525.92,278.896 525.988,277.622 C526.041,276.648 526.502,275.148 526.049,274.777 C521.186,270.799 520.561,264.701 518.17,259.504 C517.559,258.178 516.802,257.003 515.192,257.601 C511.095,259.124 506.584,259.779 502.796,262.979 C503.642,263.369 504.038,263.616 504.47,263.74 C506.944,264.451 509.368,259.74 510.375,261.996 C511.946,265.515 515.162,268.451 515.093,272.704 C515.077,273.694 515.651,274.795 515.373,275.66 C514.483,278.439 515.835,279.695 517.928,281.254 C519.676,282.556 523.107,284.81 517.242,286.154 C513.871,286.926 511.908,291.084 508.215,292.117 C505.645,292.836 502.868,294.145 501.975,289.976 C505.501,290.129 508.248,287.978 511.307,286.77 C512.151,286.437 513.587,285.498 512.31,284.661 C509.327,282.707 511.175,280.736 511.726,278.603 C513.522,271.656 509.049,265.497 502.905,266.316 C498.222,266.941 492.789,270.914 492.52,274.509 C492.173,279.142 494.921,282.423 498.73,284.494 C501.156,285.814 502.125,287.465 502.026,290.026 L502.026,290.026 Z M544.821,238.641 C544.674,238.15 544.454,237.173 544.091,236.253 C541.097,228.681 538.197,221.067 535.024,213.57 C532.44,207.461 531.75,207.101 525.781,209.392 C513.066,214.272 500.45,219.411 487.787,224.426 C471.896,230.718 455.987,236.964 440.108,243.285 C432.384,246.359 424.687,249.501 417.027,252.732 C414.693,253.716 412.602,254.799 414.113,258.309 C417.592,266.39 420.907,274.559 423.845,282.849 C425.449,287.375 427.63,288.344 432.039,286.572 C452.391,278.392 472.821,270.405 493.232,262.371 C508.837,256.229 524.464,250.143 540.057,243.971 C542.29,243.087 545.096,242.559 544.821,238.641 L544.821,238.641 Z M517.965,199.85 C518.022,198.143 517.58,196.639 516.57,195.203 C514.172,191.792 510.462,189.792 507.64,186.778 C505.571,184.569 502.446,186.568 499.94,188.045 C497.462,189.505 498.689,190.755 499.63,192.422 C500.545,194.042 499.3,195.565 498.71,197.093 C497.311,200.714 498.084,204.014 500.767,206.688 C504.187,210.094 508.119,209.758 512.07,207.628 C515.197,205.941 518.148,204.066 517.965,199.85 L517.965,199.85 Z M481.505,287.407 C481.478,283.038 479.261,279.713 475.583,278.524 C472.024,277.373 466.183,279.721 463.244,283.356 C460.563,286.67 461.558,289.479 463.55,292.847 C465.369,295.924 469.419,296.316 470.63,299.539 C471.285,301.284 471.912,302.283 473.724,301.54 C476.252,300.504 481.271,300.084 480.602,297.897 C479.372,293.875 481.838,290.887 481.505,287.407 L481.505,287.407 Z M543.018,263.707 C542.908,259.594 541.62,256.805 538.351,254.963 C534.299,252.679 530.815,254.679 527.69,256.605 C521.848,260.205 521.659,265.337 526.58,270.146 C528.825,272.339 531.809,273.481 533.86,276.064 C535.406,278.011 543.623,274.87 542.717,273.496 C540.192,269.668 543.765,266.558 543.018,263.707 L543.018,263.707 Z M467.469,211.922 C467.311,215.95 470.4,220.068 474.146,221.164 C477.714,222.208 484.943,218.491 486.62,214.516 C488.399,210.302 486.352,207.022 483.283,204.447 C481.177,202.68 478.397,201.878 477.316,198.801 C476.696,197.035 474.635,197.801 473.321,198.328 C471.371,199.11 467.65,200.594 468.164,201.409 C470.717,205.461 466.998,208.661 467.469,211.922 L467.469,211.922 Z M436.975,224.291 C436.952,228.895 438.541,231.332 442.465,232.708 C446.462,234.109 452.818,231.643 455.546,227.611 C457.798,224.283 456.704,221.421 454.438,218.57 C451.98,215.479 448.066,214.042 445.936,210.448 C444.971,208.82 436.499,212.707 437.342,213.919 C439.985,217.722 436.525,220.864 436.975,224.291 L436.975,224.291 Z M427.937,234.439 C427.944,234.526 427.959,234.187 427.889,233.866 C426.592,227.913 420.481,225.872 417.521,221.246 C417.301,220.902 415.845,221.045 415.147,221.364 C412.083,222.766 407.575,223.125 409.891,228.634 C410.295,229.597 409.533,231.227 408.974,232.386 C406.979,236.521 409.081,239.481 411.8,242.088 C414.223,244.411 417.374,245.512 420.476,243.857 C424.074,241.938 428.096,240.027 427.937,234.439 L427.937,234.439 Z M452.983,298.883 C453.211,295.505 452.695,292.744 449.544,291.059 C445.775,289.043 440.35,289.8 436.606,293.037 C432.447,296.634 432.377,300.483 435.957,304.585 C438.325,307.298 442.086,308.264 443.85,311.878 C444.842,313.911 452.656,311.199 451.955,309.251 C450.534,305.306 453.88,302.256 452.983,298.883 L452.983,298.883 Z" sketch:type="MSShapeGroup"></path>
            <path class="sofa" d="M799.028,334.22 C796.605,334.127 795.04,332.784 793.477,331.586 C785.697,325.619 777.933,319.628 770.238,313.552 C765.264,309.625 765.166,308.253 769.256,303.058 C786.329,281.363 803.421,259.682 820.522,238.009 C824.308,233.21 825.211,233.019 830.198,236.833 C838.652,243.301 846.895,250.048 855.404,256.443 C858.648,258.88 858.489,260.897 856.168,263.817 C844.376,278.654 832.699,293.582 820.985,308.48 C815.129,315.927 809.295,323.392 803.414,330.82 C802.194,332.361 801.065,334.122 799.028,334.22 L799.028,334.22 Z M843.365,261.793 C843.042,260.167 841.72,259.358 840.557,258.447 C835.322,254.35 829.815,250.557 824.909,246.1 C821.555,243.053 819.854,243.984 817.471,247.038 C803.874,264.469 790.186,281.83 776.411,299.12 C774.216,301.875 774.487,303.578 777.249,305.615 C782.73,309.66 788.148,313.809 793.362,318.189 C796.073,320.465 797.708,320.753 800.126,317.646 C814.001,299.813 828.083,282.141 842.096,264.417 C842.714,263.636 843.436,262.913 843.365,261.793 L843.365,261.793 Z M826.504,238.446 C825.351,238.457 824.769,238.752 824.535,239.458 C823.997,241.087 825.187,241.926 826.203,242.747 C832.024,247.45 837.837,252.166 843.725,256.784 C848.614,260.617 848.788,261.186 845.132,265.877 C836.445,277.025 827.763,288.177 818.999,299.265 C813.121,306.701 807.086,314.012 801.162,321.413 C798.711,324.474 796.44,324.776 793.247,322.078 C787.28,317.034 781.002,312.354 774.773,307.628 C773.588,306.729 772.074,304.683 770.535,306.479 C768.735,308.578 771.201,309.74 772.464,310.767 C779.689,316.642 787.099,322.291 794.254,328.248 C797.452,330.91 799.407,330.542 801.932,327.258 C810.443,316.188 819.236,305.336 827.923,294.402 C835.682,284.635 843.393,274.83 851.233,265.129 C853.897,261.832 854.283,259.431 850.364,256.572 C843.114,251.283 836.235,245.484 829.167,239.943 C828.279,239.246 827.18,238.819 826.504,238.446 L826.504,238.446 Z" sketch:type="MSShapeGroup"></path>
            <path class="sofachair" d="M739.361,230.713 C739.453,231.953 738.72,232.654 738.095,233.436 C731.251,242.002 724.328,250.508 717.638,259.193 C715.409,262.089 713.319,262.475 710.542,260.291 C701.667,253.31 692.787,246.334 683.897,239.372 C681.106,237.187 680.994,234.933 683.227,232.171 C690.119,223.645 696.923,215.047 703.696,206.424 C705.446,204.196 707.15,203.573 709.552,205.498 C718.367,212.56 727.258,219.528 736.063,226.602 C737.454,227.719 738.957,228.888 739.361,230.713 L739.361,230.713 Z M717.435,252.762 C718.229,252.321 719.13,252.095 719.596,251.517 C723.144,247.12 726.658,242.693 730.07,238.189 C731.314,236.546 730.567,235.008 729.128,233.831 C723.079,228.885 717.024,223.946 710.935,219.049 C709.419,217.83 707.824,217.037 706.218,219.091 C702.945,223.277 699.273,227.142 696.438,231.682 C694.912,234.125 695.189,235.888 697.513,237.639 C703.35,242.036 709.086,246.567 714.875,251.028 C715.651,251.626 716.498,252.131 717.435,252.762 L717.435,252.762 Z M735.215,230.881 C734.19,229.73 733.348,228.456 732.21,227.558 C725.033,221.899 717.7,216.434 710.614,210.665 C707.839,208.406 705.988,208.236 703.72,211.254 C698.231,218.56 692.621,225.78 686.863,232.875 C684.693,235.549 685.967,236.888 688.033,238.493 C695.647,244.405 703.194,250.404 710.801,256.326 C711.982,257.245 713.322,259.344 714.866,257.153 C716.179,255.29 713.989,254.722 712.908,253.86 C706.284,248.577 699.698,243.244 693.005,238.05 C690.443,236.061 689.643,234.282 692.019,231.485 C695.891,226.93 699.599,222.224 703.17,217.428 C705.973,213.662 708.743,212.646 712.466,216.244 C714.484,218.194 716.865,219.77 719.081,221.516 C723.255,224.806 727.416,228.111 731.61,231.374 C732.382,231.975 733.254,232.656 734.323,232.194 C734.668,232.046 734.83,231.474 735.215,230.881 L735.215,230.881 Z" sketch:type="MSShapeGroup"></path>
            <path class="sofachair" d="M750.609,304.031 C750.37,304.492 750.085,305.281 749.609,305.931 C742.637,315.438 735.541,324.849 727.87,333.813 C725.703,336.346 723.57,336.439 720.998,334.386 C713.084,328.068 705.039,321.912 697.17,315.539 C692.262,311.564 692.255,310.796 696.055,305.892 C702.359,297.756 708.706,289.652 715.06,281.555 C717.558,278.372 719.568,276.74 723.703,280.497 C731.181,287.292 739.52,293.138 747.462,299.427 C748.862,300.536 750.509,301.563 750.609,304.031 L750.609,304.031 Z M725.628,286.656 C723.94,286.596 723.196,287.519 722.469,288.437 C717.613,294.572 712.777,300.722 707.91,306.849 C706.514,308.607 706.543,310.101 708.392,311.541 C712.591,314.813 716.766,318.118 720.915,321.454 C722.675,322.87 724.113,322.86 725.567,320.98 C730.148,315.055 734.737,309.132 739.444,303.307 C741.693,300.523 741.545,298.374 738.599,296.231 C735.102,293.687 731.769,290.92 728.326,288.3 C727.416,287.607 726.364,287.099 725.628,286.656 L725.628,286.656 Z M721.352,284.473 C721.28,283.37 720.935,282.779 720.195,282.686 C718.623,282.489 717.774,283.674 716.965,284.692 C710.755,292.516 704.594,300.378 698.4,308.214 C697.144,309.804 697.128,311.16 698.807,312.488 C706.51,318.581 714.195,324.699 721.871,330.826 C723.634,332.233 725.136,332.148 726.562,330.328 C732.827,322.333 739.135,314.371 745.377,306.358 C746.29,305.187 747.35,303.582 745.56,302.478 C743.793,301.388 743.453,303.491 742.722,304.409 C737.638,310.792 732.55,317.174 727.577,323.642 C725.081,326.888 722.716,327.671 719.319,324.664 C714.716,320.592 709.873,316.776 704.975,313.059 C702.062,310.848 701.788,309.024 704.256,306.132 C709.548,299.93 714.511,293.446 719.586,287.06 C720.294,286.169 720.875,285.178 721.352,284.473 L721.352,284.473 Z" sketch:type="MSShapeGroup"></path>
            <path class="sofachair" d="M734.984,169.183 C736.443,169.123 737.481,169.981 738.531,170.799 C747.033,177.422 755.556,184.02 764.021,190.691 C767.075,193.098 767.897,195.715 765.087,199.172 C758.697,207.031 752.681,215.194 746.28,223.044 C742.468,227.719 741.705,227.399 737.122,223.677 C729.001,217.082 720.721,210.677 712.379,204.361 C709.073,201.858 708.312,199.904 711.373,196.333 C717.954,188.655 724.014,180.53 730.311,172.607 C731.545,171.053 732.754,169.403 734.984,169.183 L734.984,169.183 Z M736.294,182.413 C735.663,182.699 734.882,182.807 734.524,183.254 C730.693,188.042 726.894,192.856 723.167,197.726 C722.089,199.133 723.05,200.172 724.187,201.052 C730.74,206.124 737.303,211.183 743.827,216.293 C745.437,217.554 746.691,217.626 747.994,215.856 C751.138,211.583 754.363,207.369 757.568,203.141 C759.014,201.233 759.008,199.601 756.971,198.033 C750.93,193.385 744.952,188.654 738.926,183.987 C738.154,183.388 737.24,182.971 736.294,182.413 L736.294,182.413 Z M735.548,173.333 C733.944,173.481 732.953,174.096 732.224,175.038 C726.328,182.652 720.496,190.317 714.555,197.896 C712.773,200.17 713.978,201.605 715.654,202.896 C723.153,208.676 730.675,214.427 738.251,220.105 C739.331,220.914 740.851,222.647 742.092,221.036 C743.383,219.36 741.194,218.473 740.164,217.651 C734.454,213.091 728.631,208.673 722.89,204.151 C718.316,200.548 718.041,198.739 721.543,194.256 C725.223,189.544 729.095,184.982 732.792,180.282 C734.782,177.753 736.708,177.755 739.129,179.713 C745.583,184.935 752.117,190.06 758.656,195.176 C759.703,195.995 760.742,198.119 762.278,196.424 C763.541,195.03 762.164,193.642 760.966,192.692 C753.287,186.603 745.595,180.532 737.873,174.499 C737.123,173.913 736.142,173.623 735.548,173.333 L735.548,173.333 Z" sketch:type="MSShapeGroup"></path>
            <path class="sofatable" d="M803.126,231.82 C802.713,232.388 802.16,233.199 801.556,233.969 C788.317,250.849 775.042,267.701 761.856,284.623 C759.299,287.905 756.805,288.416 753.494,285.718 C747.692,280.99 741.768,276.412 735.871,271.802 C732.608,269.251 732.335,266.452 734.884,263.221 C747.865,246.764 760.815,230.283 773.793,213.825 C776.196,210.778 778.605,210.479 781.796,213.176 C787.892,218.326 794.302,223.103 800.581,228.035 C801.745,228.949 803.15,229.687 803.126,231.82 L803.126,231.82 Z M798.54,232.388 C798.583,230.396 797.663,229.692 796.719,228.969 C791.568,225.022 786.31,221.202 781.336,217.042 C778.523,214.69 776.638,215.411 774.687,217.89 C762.34,233.582 749.986,249.268 737.631,264.953 C736.465,266.432 735.982,267.689 737.875,269.144 C743.418,273.4 748.852,277.797 754.327,282.141 C756.527,283.887 758.017,283.863 760.018,281.307 C771.71,266.375 783.656,251.641 795.484,236.815 C796.712,235.276 797.73,233.57 798.54,232.388 L798.54,232.388 Z" sketch:type="MSShapeGroup"></path>
            <path class="desk" d="M818.939,730.666 C824.321,724.932 829.79,719.275 835.054,713.433 C838.015,710.146 840.004,709.465 843.862,713.048 C852.144,720.735 860.389,728.443 868.38,736.434 C870.311,738.364 870.287,739.395 868.487,741.686 C862.086,749.833 854.191,756.503 847.274,764.091 C842.37,769.471 836.813,774.205 832.281,779.969 C827.838,785.619 826.844,785.371 821.796,780.466 C814.284,773.167 806.763,765.876 799.099,758.739 C796.307,756.138 796.057,754.181 798.905,751.359 C804.157,746.156 809.072,740.613 814.529,734.783 C810.071,733.524 806.082,734.795 802.228,733.661 C798.718,732.629 797.104,731.216 796.751,727.261 C796.426,723.626 798.309,718.157 791.549,717.355 C790.093,717.182 790.533,715.035 791.589,714.038 C796.846,709.071 802.671,704.901 809.786,703.155 C812.097,702.587 815.676,702.392 812.912,706.836 C811.824,708.585 812.743,709.632 814.228,710.44 C814.811,710.757 815.455,710.964 816.035,711.287 C824.077,715.781 824.96,719.862 819.621,727.685 C819.095,728.455 818.684,729.303 818.22,730.115 C818.459,730.298 818.699,730.482 818.939,730.666 L818.939,730.666 Z M865.673,740.125 C865.79,737.972 864.693,737.45 863.849,736.639 C857.017,730.084 850.067,723.635 843.541,716.784 C840.799,713.905 839.075,714.267 836.656,716.787 C825.599,728.308 814.497,739.785 803.35,751.218 C800.934,753.697 800.509,755.823 803.258,758.399 C810.411,765.102 817.482,771.894 824.49,778.748 C826.059,780.282 827.06,779.949 828.735,778.865 C831.933,776.796 833.579,773.434 836.131,770.848 C845.24,761.616 854.295,752.329 863.362,743.054 C864.402,741.991 865.599,741.011 865.673,740.125 L865.673,740.125 Z M818.942,720.935 C818.839,717.076 809.552,709.53 805.114,709.699 C801.164,709.85 799.059,714.383 799.201,722.432 C799.283,727.085 803.098,731.365 807.004,731.188 C813.73,730.882 819.084,726.284 818.942,720.935 L818.942,720.935 Z" sketch:type="MSShapeGroup"></path>
            <path class="spacer" d="M747.959,749.531 C749.629,749.931 750.22,751.222 750.966,752.282 C755.846,759.214 760.683,766.178 765.531,773.134 C766.202,774.096 767.098,775.19 765.912,776.205 C764.603,777.324 763.304,776.55 762.504,775.398 C757.297,767.893 752.147,760.349 747.016,752.791 C746.46,751.971 746.08,750.945 746.847,750.027 C747.114,749.708 747.686,749.645 747.959,749.531" sketch:type="MSShapeGroup"></path>
            <path class="spacer" d="M739.639,736.449 C739.63,737.183 739.349,737.968 738.623,737.908 C737.886,737.846 736.966,737.454 736.518,736.894 C734.237,734.034 732.003,731.128 729.902,728.134 C726.746,723.636 723.685,719.072 720.657,714.487 C719.977,713.458 718.522,712.093 719.898,711.011 C721.432,709.806 722.681,711.419 723.556,712.539 C725.704,715.29 727.909,718.036 729.688,721.024 C732.078,725.039 734.56,728.96 737.51,732.587 C738.443,733.735 739.519,734.84 739.639,736.449" sketch:type="MSShapeGroup"></path>
            <path class="spacer" d="M742.95,753.398 C744.513,753.822 745.402,754.833 746.162,755.92 C750.639,762.323 755.097,768.739 759.522,775.177 C760.536,776.652 762.118,778.635 759.978,779.876 C758.074,780.98 757.339,778.455 756.459,777.208 C751.764,770.55 747.145,763.838 742.52,757.13 C741.87,756.188 741.051,755.189 741.851,753.971 C742.071,753.636 742.656,753.541 742.95,753.398" sketch:type="MSShapeGroup"></path>
            <path class="spacer" d="M734.239,739.177 C734.167,740.056 733.815,740.623 733.082,740.714 C731.959,740.853 731.232,740.116 730.636,739.303 C727.803,735.438 724.945,731.588 722.187,727.669 C719.814,724.296 717.537,720.855 715.275,717.406 C714.639,716.436 714.026,715.201 715.069,714.232 C716.36,713.032 717.209,714.314 717.836,715.198 C723.193,722.749 728.501,730.334 733.801,737.925 C734.07,738.31 734.127,738.844 734.239,739.177" sketch:type="MSShapeGroup"></path>
            <path class="desk" d="M480.161,825.382 C479.58,823.625 479.576,823.19 479.365,823.034 C473.418,818.637 473.976,813.491 477.602,807.988 C478.977,805.9 479.365,804.124 476.677,802.623 C474.324,801.308 474.371,799.962 477.062,798.964 C484.343,796.263 491.731,796.213 499.116,798.28 C501.646,798.988 503.855,800.4 500.204,802.831 C498.079,804.247 498.753,805.696 499.727,807.508 C505.218,817.729 504.473,819.794 493.616,825.282 C492.62,825.785 491.105,826.013 491.369,827.503 C491.56,828.586 492.875,828.646 493.832,828.885 C500.27,830.495 506.678,832.244 513.162,833.643 C516.324,834.325 517.457,836.096 516.929,838.954 C514.719,850.914 511.697,862.68 508.026,874.272 C507.131,877.101 504.882,876.676 502.645,876.097 C493.456,873.716 484.266,871.331 475.057,869.028 C466.831,866.971 458.579,865.017 450.337,863.022 C447.224,862.269 445.704,860.516 446.679,857.205 C449.828,846.503 451.335,835.401 454.68,824.734 C455.983,820.577 458.142,819.639 462.164,820.829 C467.824,822.504 473.611,823.75 480.161,825.382 L480.161,825.382 Z M502.361,872.693 C505.184,872.999 505.732,871.319 506.194,869.398 C508.214,860.998 510.21,852.591 512.368,844.226 C514.072,837.621 513.629,836.716 507.059,835.153 C492.169,831.61 477.246,828.204 462.416,824.427 C458.963,823.547 457.697,824.046 456.96,827.604 C455.068,836.73 453.173,845.889 450.511,854.806 C449.208,859.172 450.833,860.124 454.299,860.776 C461.829,862.193 469.144,864.449 476.526,866.466 C485.177,868.831 493.967,870.693 502.361,872.693 L502.361,872.693 Z M488.418,822.742 C492.503,822.801 496.063,821.659 498.109,817.9 C500.099,814.245 497.912,811.23 496.128,808.255 C495.196,806.703 493.944,805.323 493.165,803.707 C492.112,801.523 490.54,801.213 488.31,801.296 C483.029,801.491 483.122,806.675 480.67,809.412 C478.825,811.472 477.229,814.561 479.339,817.605 C481.512,820.739 484.454,822.743 488.418,822.742 L488.418,822.742 Z" sketch:type="MSShapeGroup"></path>
            <path class="detail" d="M906.377,327.187 C909.119,328.085 912.684,328.634 914.156,331.496 C915.66,334.42 912.767,336.975 911.682,339.64 C911.356,340.443 910.369,340.606 909.544,340.089 C908.849,339.655 908.225,338.714 907.554,338.699 C901.689,338.574 898.402,337.611 904.968,332.368 C905.809,331.696 904.715,330.586 904.32,329.711 C903.501,327.9 904.515,327.33 906.377,327.187" sketch:type="MSShapeGroup"></path>
        </g>
    </g>
</svg>